<?xml version="1.0" encoding="UTF-8"?>
<svg id="Layer_2" data-name="Layer 2" xmlns="http://www.w3.org/2000/svg" viewBox="0 0 100.4 92.41">
  <defs>
    <style>
      .cls-1 {
        fill: #f8d1d4;
      }

      .cls-1, .cls-2, .cls-3, .cls-4, .cls-5 {
        stroke-miterlimit: 10;
      }

      .cls-1, .cls-2, .cls-6, .cls-4, .cls-5 {
        stroke-width: .3px;
      }

      .cls-1, .cls-3, .cls-6, .cls-7, .cls-4, .cls-5 {
        stroke: #010101;
      }

      .cls-8 {
        letter-spacing: -.02em;
      }

      .cls-9 {
        letter-spacing: -.06em;
      }

      .cls-9, .cls-10, .cls-11 {
        font-size: 5.4px;
      }

      .cls-12 {
        font-size: 3.6px;
        letter-spacing: 0em;
      }

      .cls-13 {
        letter-spacing: -.14em;
      }

      .cls-14, .cls-15, .cls-16, .cls-17, .cls-4 {
        fill: #9b1c1f;
      }

      .cls-18 {
        letter-spacing: -.06em;
      }

      .cls-2 {
        stroke: #bd2026;
      }

      .cls-2, .cls-3, .cls-6, .cls-7 {
        fill: none;
      }

      .cls-3 {
        stroke-dasharray: 0 0 .91 .91;
        stroke-width: .5px;
      }

      .cls-19 {
        letter-spacing: 0em;
      }

      .cls-10 {
        letter-spacing: 0em;
      }

      .cls-20 {
        fill: #010101;
      }

      .cls-20, .cls-15 {
        font-size: 6px;
      }

      .cls-20, .cls-15, .cls-16 {
        font-family: L10-Regular, L10;
      }

      .cls-7 {
        stroke-width: .08px;
      }

      .cls-21 {
        letter-spacing: 0em;
      }

      .cls-17 {
        opacity: .6;
      }

      .cls-5 {
        fill: #fff;
      }
    </style>
  </defs>
  <g id="radar-graphs">
    <g>
      <circle class="cls-14" cx="9.23" cy="59.53" r="2.05"/>
      <path class="cls-4" d="m75.51,59.43c0,13.98-11.33,25.31-25.31,25.31s-25.31-11.33-25.31-25.31"/>
      <path class="cls-1" d="m72.22,59.43c0,12.16-9.86,22.02-22.02,22.02s-22.02-9.86-22.02-22.02"/>
      <g>
        <path id="_10000" data-name="10000" class="cls-7" d="m4.51,59.44c0-25.19,20.42-45.61,45.61-45.61s45.61,20.42,45.61,45.61H4.51Z"/>
        <path id="_9000" data-name="9000" class="cls-7" d="m9.23,59.44c0-22.58,18.31-40.89,40.89-40.89s40.89,18.31,40.89,40.89"/>
        <path id="_8000" data-name="8000" class="cls-7" d="m13.68,59.44c0-20.12,16.31-36.44,36.44-36.44s36.44,16.31,36.44,36.44"/>
        <path id="_7000" data-name="7000" class="cls-7" d="m18.13,59.44c0-17.67,14.32-31.99,31.99-31.99s31.99,14.32,31.99,31.99"/>
        <path id="_6000" data-name="6000" class="cls-7" d="m22.86,59.44c0-15.05,12.2-27.26,27.26-27.26s27.26,12.2,27.26,27.26"/>
        <path id="_5000" data-name="5000" class="cls-7" d="m27.31,59.44c0-12.6,10.21-22.81,22.81-22.81s22.81,10.21,22.81,22.81"/>
        <path id="_4000" data-name="4000" class="cls-7" d="m32.04,59.44c0-9.98,8.09-18.08,18.08-18.08s18.08,8.09,18.08,18.08h-36.16Z"/>
        <path id="_3000" data-name="3000" class="cls-7" d="m36.49,59.44c0-7.53,6.1-13.63,13.63-13.63s13.63,6.1,13.63,13.63h-27.26Z"/>
        <path id="_2000" data-name="2000" class="cls-7" d="m40.94,59.44c0-5.07,4.11-9.18,9.18-9.18s9.18,4.11,9.18,9.18h-18.36Z"/>
        <path id="_1000" data-name="1000" class="cls-7" d="m45.67,59.44c0-2.46,1.99-4.45,4.45-4.45s4.45,1.99,4.45,4.45"/>
        <line class="cls-6" x1="50.12" y1="59.44" x2="50.12" y2="9.37"/>
        <line class="cls-6" x1="50.12" y1="59.44" x2="14.72" y2="24.03"/>
        <line class="cls-6" x1="50.12" y1="59.44" x2="85.52" y2="24.03"/>
        <path id="_10000-2" data-name="10000" class="cls-7" d="m.04,59.44C.04,31.73,22.5,9.27,50.2,9.27s50.16,22.46,50.16,50.16H.04Z"/>
        <line class="cls-6" x1=".04" y1="59.44" x2="100.26" y2="59.44"/>
      </g>
      <text class="cls-15" transform="translate(36.7 90.91)"><tspan x="0" y="0">232</tspan><tspan class="cls-21" x="10.55" y="0">5</tspan><tspan x="14.05" y="0">.6 ha</tspan></text>
      <text class="cls-15" transform="translate(39.47 71)"><tspan x="0" y="0">47 p/ha</tspan></text>
      <path class="cls-17" d="m9.23,59.44s-1.41-25.08,5.49-35.4c4.51-6.76,28.19-13.41,35.4-10.85,12.22,4.33,13.59,21.75,18.63,27.62,5.84,6.8,21.47,18.68,21.47,18.68"/>
      <path class="cls-2" d="m9.23,59.44s-1.41-25.08,5.49-35.4c4.51-6.76,28.19-13.41,35.4-10.85,12.22,4.33,13.59,21.75,18.63,27.62,5.84,6.8,21.47,18.68,21.47,18.68"/>
      <circle class="cls-14" cx="50.12" cy="13.18" r="2.05"/>
      <circle class="cls-14" cx="68.95" cy="40.81" r="2.05"/>
      <circle class="cls-14" cx="90.22" cy="59.53" r="2.05"/>
      <circle class="cls-14" cx="14.86" cy="24.17" r="2.05"/>
      <g>
        <path class="cls-3" d="m6.44,59.4c-.11-21.46,5.46-31.14,10.12-33.3,6.82-3.17,15.69,9.11,33.56,9.93,12.54.57,14.69-1.34,22.38,1.11,5.73,1.83,14.49,14.02,16.61,22.27"/>
        <circle class="cls-5" cx="50.12" cy="36.08" r="1.16"/>
        <circle class="cls-5" cx="72.5" cy="37.01" r="1.16"/>
        <circle class="cls-5" cx="89.04" cy="59.4" r="1.16"/>
        <circle class="cls-5" cx="16.56" cy="26.09" r="1.16"/>
        <circle class="cls-5" cx="6.44" cy="59.4" r="1.16"/>
      </g>
      <text class="cls-15" transform="translate(82.48 66.09)"><tspan x="0" y="0">4</tspan><tspan class="cls-8" x="3.42" y="0">4</tspan><tspan x="6.72" y="0">.3%</tspan></text>
      <text class="cls-16" transform="translate(72.5 42.86)"><tspan class="cls-11" x="0" y="0">1</tspan><tspan class="cls-9" x="2.3" y="0">1</tspan><tspan class="cls-10" x="4.28" y="0">.</tspan><tspan class="cls-11" x="5.49" y="0">8</tspan><tspan class="cls-12" x="8.7" y="0">€/m2</tspan></text>
      <text class="cls-15" transform="translate(7.16 21.07)"><tspan x="0" y="0">9</tspan><tspan class="cls-13" x="3.49" y="0">9</tspan><tspan class="cls-8" x="6.14" y="0">.</tspan><tspan x="7.43" y="0">4%</tspan></text>
      <text class="cls-15" transform="translate(2.41 66.47)"><tspan x="0" y="0">8</tspan><tspan class="cls-18" x="3.57" y="0">1</tspan><tspan class="cls-8" x="5.77" y="0">.</tspan><tspan x="7.05" y="0">4%</tspan></text>
      <text class="cls-15" transform="translate(51.28 10.43)"><tspan x="0" y="0">6</tspan><tspan class="cls-21" x="3.49" y="0">5</tspan><tspan class="cls-19" x="7" y="0">.6%</tspan></text>
      <text class="cls-20" transform="translate(2.74 5.1)"><tspan x="0" y="0">District 11</tspan></text>
    </g>
  </g>
</svg>