<?xml version="1.0" encoding="UTF-8"?>
<svg id="Layer_2" data-name="Layer 2" xmlns="http://www.w3.org/2000/svg" viewBox="0 0 106.61 91.86">
  <defs>
    <style>
      .cls-1, .cls-2, .cls-3, .cls-4, .cls-5 {
        stroke-miterlimit: 10;
      }

      .cls-1, .cls-2, .cls-6, .cls-4, .cls-5 {
        stroke-width: .3px;
      }

      .cls-1, .cls-3, .cls-6, .cls-7, .cls-4, .cls-5 {
        stroke: #010101;
      }

      .cls-1, .cls-8 {
        fill: #f8d1d4;
      }

      .cls-9 {
        letter-spacing: -.01em;
      }

      .cls-10 {
        letter-spacing: -.02em;
      }

      .cls-11 {
        letter-spacing: -.04em;
      }

      .cls-12 {
        letter-spacing: -.13em;
      }

      .cls-13 {
        font-size: 3.6px;
        letter-spacing: 0em;
      }

      .cls-14 {
        letter-spacing: -.14em;
      }

      .cls-15, .cls-16, .cls-17, .cls-18, .cls-4 {
        fill: #9b1c1f;
      }

      .cls-19 {
        letter-spacing: -.02em;
      }

      .cls-19, .cls-20 {
        font-size: 5.4px;
      }

      .cls-2 {
        stroke: #bd2026;
      }

      .cls-2, .cls-3, .cls-6, .cls-7 {
        fill: none;
      }

      .cls-21 {
        letter-spacing: 0em;
      }

      .cls-3 {
        stroke-dasharray: 0 0 .91 .91;
        stroke-width: .5px;
      }

      .cls-22 {
        letter-spacing: 0em;
      }

      .cls-8, .cls-23, .cls-16 {
        font-size: 6px;
      }

      .cls-8, .cls-23, .cls-16, .cls-17 {
        font-family: L10-Regular, L10;
      }

      .cls-23 {
        fill: #010101;
      }

      .cls-7 {
        stroke-width: .08px;
      }

      .cls-24 {
        letter-spacing: -.07em;
      }

      .cls-18 {
        opacity: .6;
      }

      .cls-5 {
        fill: #fff;
      }
    </style>
  </defs>
  <g id="radar-graphs">
    <g>
      <circle class="cls-15" cx="96.67" cy="56.05" r="2.05"/>
      <path class="cls-1" d="m88.93,55.94c0,19.76-16.01,35.77-35.77,35.77s-35.77-16.01-35.77-35.77"/>
      <path class="cls-4" d="m68.09,55.94c0,8.25-6.69,14.94-14.94,14.94s-14.94-6.69-14.94-14.94"/>
      <g>
        <path id="_10000" data-name="10000" class="cls-7" d="m7.46,56C7.46,30.81,27.88,10.39,53.08,10.39s45.61,20.42,45.61,45.61H7.46Z"/>
        <path id="_9000" data-name="9000" class="cls-7" d="m12.19,56c0-22.58,18.31-40.89,40.89-40.89s40.89,18.31,40.89,40.89"/>
        <path id="_8000" data-name="8000" class="cls-7" d="m16.64,56c0-20.12,16.31-36.44,36.44-36.44s36.44,16.31,36.44,36.44"/>
        <path id="_7000" data-name="7000" class="cls-7" d="m21.09,56c0-17.67,14.32-31.99,31.99-31.99s31.99,14.32,31.99,31.99"/>
        <path id="_6000" data-name="6000" class="cls-7" d="m25.82,56c0-15.05,12.2-27.26,27.26-27.26s27.26,12.2,27.26,27.26"/>
        <path id="_5000" data-name="5000" class="cls-7" d="m30.27,56c0-12.6,10.21-22.81,22.81-22.81s22.81,10.21,22.81,22.81"/>
        <path id="_4000" data-name="4000" class="cls-7" d="m35,56c0-9.98,8.09-18.08,18.08-18.08s18.08,8.09,18.08,18.08h-36.16Z"/>
        <path id="_3000" data-name="3000" class="cls-7" d="m39.45,56c0-7.53,6.1-13.63,13.63-13.63s13.63,6.1,13.63,13.63h-27.26Z"/>
        <path id="_2000" data-name="2000" class="cls-7" d="m43.9,56c0-5.07,4.11-9.18,9.18-9.18s9.18,4.11,9.18,9.18h-18.36Z"/>
        <path id="_1000" data-name="1000" class="cls-7" d="m48.63,56c0-2.46,1.99-4.45,4.45-4.45s4.45,1.99,4.45,4.45"/>
        <path id="_10000-2" data-name="10000" class="cls-7" d="m2.99,56C2.99,28.3,25.45,5.84,53.16,5.84s50.16,22.46,50.16,50.16H2.99Z"/>
        <g>
          <line class="cls-6" x1="53.08" y1="56" x2="53.08" y2="5.94"/>
          <line class="cls-6" x1="53.08" y1="56" x2="17.67" y2="20.6"/>
          <line class="cls-6" x1="53.08" y1="56" x2="88.48" y2="20.6"/>
          <line class="cls-6" x1="2.99" y1="56" x2="103.21" y2="56"/>
        </g>
      </g>
      <text class="cls-8" transform="translate(41.77 63.41)"><tspan x="0" y="0">81</tspan><tspan class="cls-11" x="6.13" y="0">0</tspan><tspan class="cls-22" x="9.79" y="0">.3 ha</tspan></text>
      <text class="cls-16" transform="translate(41.02 80.28)"><tspan x="0" y="0">124 p/ha</tspan></text>
      <path class="cls-18" d="m4.09,55.95s4.78-26.64,14.6-34.22c9.29-7.17,27.58-1.22,34.38,2.29,9.18,4.73,15.28,6.25,21.82,10.39,8.75,5.55,21.78,21.64,21.78,21.64"/>
      <path class="cls-2" d="m4.09,55.95s4.78-26.64,14.6-34.22c9.29-7.17,27.58-1.22,34.38,2.29,9.18,4.73,15.28,6.25,21.82,10.39,8.75,5.55,21.78,21.64,21.78,21.64"/>
      <circle class="cls-15" cx="53.11" cy="23.78" r="2.05"/>
      <circle class="cls-15" cx="74.9" cy="34.41" r="2.05"/>
      <circle class="cls-15" cx="18.69" cy="21.62" r="2.05"/>
      <circle class="cls-15" cx="3.75" cy="56.05" r="2.05"/>
      <g>
        <path class="cls-3" d="m9.39,55.87c-.11-21.46,5.46-31.14,10.12-33.3,6.82-3.17,15.69,9.11,33.56,9.93,12.54.57,14.69-1.34,22.38,1.11,5.73,1.83,14.49,14.02,16.61,22.27"/>
        <circle class="cls-5" cx="53.07" cy="32.56" r="1.16"/>
        <circle class="cls-5" cx="75.45" cy="33.48" r="1.16"/>
        <circle class="cls-5" cx="91.99" cy="55.87" r="1.16"/>
        <circle class="cls-5" cx="19.51" cy="22.57" r="1.16"/>
        <circle class="cls-5" cx="9.39" cy="55.87" r="1.16"/>
      </g>
      <text class="cls-16" transform="translate(90.83 62.99)"><tspan x="0" y="0">4</tspan><tspan class="cls-9" x="3.42" y="0">8</tspan><tspan class="cls-12" x="6.93" y="0">.</tspan><tspan class="cls-21" x="7.55" y="0">1%</tspan></text>
      <text class="cls-17" transform="translate(78.89 34.41)"><tspan class="cls-20" x="0" y="0">1</tspan><tspan class="cls-19" x="2.3" y="0">3</tspan><tspan class="cls-20" x="5.37" y="0">.6</tspan><tspan class="cls-13" x="9.77" y="0">€/m2</tspan></text>
      <text class="cls-16" transform="translate(10.55 19)"><tspan x="0" y="0">98%</tspan></text>
      <text class="cls-16" transform="translate(0 62.99)"><tspan x="0" y="0">9</tspan><tspan class="cls-14" x="3.49" y="0">9</tspan><tspan class="cls-10" x="6.14" y="0">.</tspan><tspan x="7.43" y="0">4%</tspan></text>
      <text class="cls-16" transform="translate(55.16 21.73)"><tspan x="0" y="0">4</tspan><tspan class="cls-9" x="3.42" y="0">5</tspan><tspan class="cls-24" x="6.92" y="0">.</tspan><tspan class="cls-22" x="7.91" y="0">9%</tspan></text>
      <text class="cls-23" transform="translate(2.52 5.1)"><tspan x="0" y="0">District 12</tspan></text>
    </g>
  </g>
</svg>