<?xml version="1.0" encoding="UTF-8"?>
<svg id="Layer_2" data-name="Layer 2" xmlns="http://www.w3.org/2000/svg" viewBox="0 0 103.89 88.38">
  <defs>
    <style>
      .cls-1, .cls-2, .cls-3, .cls-4, .cls-5 {
        stroke-miterlimit: 10;
      }

      .cls-1, .cls-2, .cls-6, .cls-4, .cls-5 {
        stroke-width: .3px;
      }

      .cls-1, .cls-3, .cls-6, .cls-7, .cls-4, .cls-5 {
        stroke: #010101;
      }

      .cls-1, .cls-8 {
        fill: #f8d1d4;
      }

      .cls-9 {
        letter-spacing: -.01em;
      }

      .cls-10 {
        letter-spacing: -.04em;
      }

      .cls-11 {
        letter-spacing: -.04em;
      }

      .cls-12 {
        letter-spacing: -.01em;
      }

      .cls-12, .cls-13, .cls-14 {
        font-size: 5.4px;
      }

      .cls-15 {
        letter-spacing: -.02em;
      }

      .cls-16 {
        font-size: 3.6px;
      }

      .cls-17 {
        letter-spacing: -.14em;
      }

      .cls-18, .cls-19, .cls-20, .cls-21, .cls-4 {
        fill: #9b1c1f;
      }

      .cls-22 {
        letter-spacing: -.06em;
      }

      .cls-2 {
        stroke: #bd2026;
      }

      .cls-2, .cls-3, .cls-6, .cls-7 {
        fill: none;
      }

      .cls-13 {
        letter-spacing: 0em;
      }

      .cls-3 {
        stroke-dasharray: 0 0 .91 .91;
        stroke-width: .5px;
      }

      .cls-23 {
        letter-spacing: 0em;
      }

      .cls-8, .cls-24, .cls-19 {
        font-size: 6px;
      }

      .cls-8, .cls-24, .cls-19, .cls-20 {
        font-family: L10-Regular, L10;
      }

      .cls-24 {
        fill: #010101;
      }

      .cls-7 {
        stroke-width: .08px;
      }

      .cls-25 {
        letter-spacing: -.07em;
      }

      .cls-21 {
        opacity: .6;
      }

      .cls-14 {
        letter-spacing: -.02em;
      }

      .cls-5 {
        fill: #fff;
      }
    </style>
  </defs>
  <g id="radar-graphs">
    <g>
      <path class="cls-4" d="m85.76,56c0,17.8-14.42,32.23-32.22,32.23h0c-17.8,0-32.23-14.42-32.23-32.22"/>
      <path class="cls-1" d="m65.98,56c0,6.87-5.57,12.44-12.44,12.44h0c-6.87,0-12.44-5.57-12.44-12.44"/>
      <g>
        <path id="_10000" data-name="10000" class="cls-7" d="m7.99,56C7.99,30.81,28.42,10.39,53.61,10.39s45.61,20.42,45.61,45.61H7.99Z"/>
        <path id="_9000" data-name="9000" class="cls-7" d="m12.72,56c0-22.58,18.31-40.89,40.89-40.89s40.89,18.31,40.89,40.89"/>
        <path id="_8000" data-name="8000" class="cls-7" d="m17.17,56c0-20.12,16.31-36.44,36.44-36.44s36.44,16.31,36.44,36.44"/>
        <path id="_7000" data-name="7000" class="cls-7" d="m21.62,56c0-17.67,14.32-31.99,31.99-31.99s31.99,14.32,31.99,31.99"/>
        <path id="_6000" data-name="6000" class="cls-7" d="m26.35,56c0-15.05,12.2-27.26,27.26-27.26s27.26,12.2,27.26,27.26"/>
        <path id="_5000" data-name="5000" class="cls-7" d="m30.8,56c0-12.6,10.21-22.81,22.81-22.81s22.81,10.21,22.81,22.81"/>
        <path id="_4000" data-name="4000" class="cls-7" d="m35.53,56c0-9.98,8.09-18.08,18.08-18.08s18.08,8.09,18.08,18.08h-36.16Z"/>
        <path id="_3000" data-name="3000" class="cls-7" d="m39.98,56c0-7.53,6.1-13.63,13.63-13.63s13.63,6.1,13.63,13.63h-27.26Z"/>
        <path id="_2000" data-name="2000" class="cls-7" d="m44.43,56c0-5.07,4.11-9.18,9.18-9.18s9.18,4.11,9.18,9.18h-18.36Z"/>
        <path id="_1000" data-name="1000" class="cls-7" d="m49.16,56c0-2.46,1.99-4.45,4.45-4.45s4.45,1.99,4.45,4.45"/>
        <path id="_10000-2" data-name="10000" class="cls-7" d="m3.52,56C3.52,28.3,25.98,5.84,53.69,5.84s50.16,22.46,50.16,50.16H3.52Z"/>
        <g>
          <line class="cls-6" x1="53.61" y1="56" x2="53.61" y2="5.94"/>
          <line class="cls-6" x1="53.61" y1="56" x2="18.21" y2="20.6"/>
          <line class="cls-6" x1="53.61" y1="56" x2="89.01" y2="20.6"/>
          <line class="cls-6" x1="3.52" y1="56" x2="103.74" y2="56"/>
        </g>
      </g>
      <text class="cls-8" transform="translate(43.03 76.59)"><tspan x="0" y="0">377</tspan><tspan class="cls-22" x="10.04" y="0">1</tspan><tspan class="cls-9" x="12.24" y="0">.</tspan><tspan x="13.58" y="0">5 ha</tspan></text>
      <text class="cls-19" transform="translate(43.54 62.22)"><tspan x="0" y="0">15 p/ha</tspan></text>
      <path class="cls-21" d="m11.37,56.05s-3.7-28.9,6.84-35.45c12.59-7.83,24.3,9.18,35.33,14.58,9.27,4.54,16.78-6.59,23.26-2.37,8.79,5.73,4.07,23.19,4.07,23.19"/>
      <path class="cls-2" d="m11.37,56.05s-3.7-28.9,6.84-35.45c12.59-7.83,24.3,9.18,35.33,14.58,9.27,4.54,16.78-6.59,23.26-2.37,8.79,5.73,4.07,23.19,4.07,23.19"/>
      <circle class="cls-18" cx="53.54" cy="34.93" r="2.05"/>
      <circle class="cls-18" cx="18.42" cy="20.6" r="2.05"/>
      <circle class="cls-18" cx="76.8" cy="32.65" r="2.05"/>
      <circle class="cls-18" cx="80.79" cy="56.05" r="2.05"/>
      <circle class="cls-18" cx="11.37" cy="56" r="2.05"/>
      <g>
        <path class="cls-3" d="m10.27,55.88c-.11-21.46,5.46-31.14,10.12-33.3,6.82-3.17,15.69,9.11,33.56,9.93,12.54.57,14.69-1.34,22.38,1.11,5.73,1.83,14.49,14.02,16.61,22.27"/>
        <circle class="cls-5" cx="53.95" cy="32.57" r="1.16"/>
        <circle class="cls-5" cx="76.33" cy="33.5" r="1.16"/>
        <circle class="cls-5" cx="92.86" cy="55.88" r="1.16"/>
        <circle class="cls-5" cx="20.38" cy="22.58" r="1.16"/>
        <circle class="cls-5" cx="10.27" cy="55.88" r="1.16"/>
      </g>
      <text class="cls-19" transform="translate(82.13 52.95)"><tspan x="0" y="0">3</tspan><tspan class="cls-10" x="3.53" y="0">0</tspan><tspan x="7.19" y="0">.2%</tspan></text>
      <text class="cls-20" transform="translate(80.79 33.73)"><tspan class="cls-12" x="0" y="0">1</tspan><tspan class="cls-14" x="2.25" y="0">4</tspan><tspan class="cls-13" x="5.22" y="0">.6</tspan><tspan class="cls-16" x="9.62" y="0">€/m2</tspan></text>
      <text class="cls-19" transform="translate(8.73 17.59)"><tspan x="0" y="0">9</tspan><tspan class="cls-17" x="3.49" y="0">9</tspan><tspan class="cls-25" x="6.14" y="0">.</tspan><tspan x="7.13" y="0">9%</tspan></text>
      <text class="cls-19" transform="translate(3.82 62.99)"><tspan x="0" y="0">8</tspan><tspan class="cls-15" x="3.57" y="0">3</tspan><tspan x="6.98" y="0">.2%</tspan></text>
      <text class="cls-19" transform="translate(55.11 30.97)"><tspan x="0" y="0">3</tspan><tspan class="cls-11" x="3.53" y="0">0</tspan><tspan class="cls-23" x="7.19" y="0">.2%</tspan></text>
      <text class="cls-24" transform="translate(0 5.1)"><tspan x="0" y="0">District 13</tspan></text>
    </g>
  </g>
</svg>