<?xml version="1.0" encoding="UTF-8"?>
<svg id="Layer_2" data-name="Layer 2" xmlns="http://www.w3.org/2000/svg" viewBox="0 0 100.4 85.81">
  <defs>
    <style>
      .cls-1, .cls-2, .cls-3, .cls-4, .cls-5 {
        stroke-miterlimit: 10;
      }

      .cls-1, .cls-2, .cls-6, .cls-4, .cls-5 {
        stroke-width: .3px;
      }

      .cls-1, .cls-3, .cls-6, .cls-7, .cls-4, .cls-5 {
        stroke: #010101;
      }

      .cls-1, .cls-8 {
        fill: #f8d1d4;
      }

      .cls-9 {
        letter-spacing: -.01em;
      }

      .cls-10 {
        font-size: 3.6px;
      }

      .cls-11, .cls-12, .cls-13, .cls-14, .cls-4 {
        fill: #9b1c1f;
      }

      .cls-2 {
        stroke: #bd2026;
      }

      .cls-2, .cls-3, .cls-6, .cls-7 {
        fill: none;
      }

      .cls-3 {
        stroke-dasharray: 0 0 .91 .91;
        stroke-width: .5px;
      }

      .cls-15 {
        letter-spacing: 0em;
      }

      .cls-16, .cls-17 {
        font-size: 5.4px;
      }

      .cls-8, .cls-18, .cls-12 {
        font-size: 6px;
      }

      .cls-8, .cls-18, .cls-12, .cls-13 {
        font-family: L10-Regular, L10;
      }

      .cls-18 {
        fill: #010101;
      }

      .cls-19 {
        letter-spacing: -.05em;
      }

      .cls-17 {
        letter-spacing: -.05em;
      }

      .cls-7 {
        stroke-width: .08px;
      }

      .cls-20 {
        letter-spacing: 0em;
      }

      .cls-21 {
        letter-spacing: -.02em;
      }

      .cls-22 {
        letter-spacing: -.03em;
      }

      .cls-14 {
        opacity: .6;
      }

      .cls-5 {
        fill: #fff;
      }
    </style>
  </defs>
  <g id="radar-graphs">
    <g>
      <path class="cls-4" d="m80.61,55.16c0,16.84-13.65,30.49-30.49,30.49h0c-16.84,0-30.49-13.65-30.49-30.49"/>
      <path class="cls-1" d="m67.42,55.17c0,9.55-7.74,17.3-17.3,17.3h0c-9.55,0-17.3-7.74-17.3-17.3"/>
      <g>
        <path id="_10000" data-name="10000" class="cls-7" d="m4.51,55.16C4.51,29.97,24.93,9.55,50.12,9.55s45.61,20.42,45.61,45.61H4.51Z"/>
        <path id="_9000" data-name="9000" class="cls-7" d="m9.23,55.16c0-22.58,18.31-40.89,40.89-40.89s40.89,18.31,40.89,40.89"/>
        <path id="_8000" data-name="8000" class="cls-7" d="m13.68,55.16c0-20.12,16.31-36.44,36.44-36.44s36.44,16.31,36.44,36.44"/>
        <path id="_7000" data-name="7000" class="cls-7" d="m18.13,55.16c0-17.67,14.32-31.99,31.99-31.99s31.99,14.32,31.99,31.99"/>
        <path id="_6000" data-name="6000" class="cls-7" d="m22.86,55.16c0-15.05,12.2-27.26,27.26-27.26s27.26,12.2,27.26,27.26"/>
        <path id="_5000" data-name="5000" class="cls-7" d="m27.31,55.16c0-12.6,10.21-22.81,22.81-22.81s22.81,10.21,22.81,22.81"/>
        <path id="_4000" data-name="4000" class="cls-7" d="m32.04,55.16c0-9.98,8.09-18.08,18.08-18.08s18.08,8.09,18.08,18.08h-36.16Z"/>
        <path id="_3000" data-name="3000" class="cls-7" d="m36.49,55.16c0-7.53,6.1-13.63,13.63-13.63s13.63,6.1,13.63,13.63h-27.26Z"/>
        <path id="_2000" data-name="2000" class="cls-7" d="m40.94,55.16c0-5.07,4.11-9.18,9.18-9.18s9.18,4.11,9.18,9.18h-18.36Z"/>
        <path id="_1000" data-name="1000" class="cls-7" d="m45.67,55.16c0-2.46,1.99-4.45,4.45-4.45s4.45,1.99,4.45,4.45"/>
        <path id="_10000-2" data-name="10000" class="cls-7" d="m.04,55.16C.04,27.46,22.5,5,50.2,5s50.16,22.46,50.16,50.16H.04Z"/>
        <g>
          <line class="cls-6" x1="50.12" y1="55.16" x2="50.12" y2="5.1"/>
          <line class="cls-6" x1="50.12" y1="55.16" x2="14.72" y2="19.76"/>
          <line class="cls-6" x1="50.12" y1="55.16" x2="85.52" y2="19.76"/>
          <line class="cls-6" x1=".04" y1="55.16" x2="100.26" y2="55.16"/>
        </g>
      </g>
      <text class="cls-8" transform="translate(37 78.62)"><tspan x="0" y="0">33</tspan><tspan class="cls-22" x="7.06" y="0">7</tspan><tspan class="cls-21" x="10.1" y="0">6</tspan><tspan x="13.48" y="0">.3 ha</tspan></text>
      <text class="cls-18" transform="translate(39.34 63.82)"><tspan x="0" y="0">29 p/ha</tspan></text>
      <path class="cls-14" d="m6.85,55.21s-2.5-28.62,7.86-35.45c12.59-8.3,23.77,6.08,35.4,10.02,9.18,3.11,13.63,1.2,20.28,5.16,8.44,5.03,13.66,20.22,13.66,20.22"/>
      <path class="cls-2" d="m6.85,55.21s-2.5-28.62,7.86-35.45c12.59-8.3,23.77,6.08,35.4,10.02,9.18,3.11,13.63,1.2,20.28,5.16,8.44,5.03,13.66,20.22,13.66,20.22"/>
      <circle class="cls-11" cx="50.12" cy="29.78" r="2.05"/>
      <circle class="cls-11" cx="70.4" cy="34.94" r="2.05"/>
      <circle class="cls-11" cx="84.05" cy="55.23" r="2.05"/>
      <circle class="cls-11" cx="14.91" cy="20.04" r="2.05"/>
      <circle class="cls-11" cx="6.85" cy="55.21" r="2.05"/>
      <g>
        <path class="cls-3" d="m6.32,55.05c-.11-21.46,5.46-31.14,10.12-33.3,6.82-3.17,15.69,9.11,33.56,9.93,12.54.57,14.69-1.34,22.38,1.11,5.73,1.83,14.49,14.02,16.61,22.27"/>
        <circle class="cls-5" cx="50" cy="31.73" r="1.16"/>
        <circle class="cls-5" cx="72.38" cy="32.66" r="1.16"/>
        <circle class="cls-5" cx="88.92" cy="55.05" r="1.16"/>
        <circle class="cls-5" cx="16.44" cy="21.74" r="1.16"/>
        <circle class="cls-5" cx="6.32" cy="55.05" r="1.16"/>
      </g>
      <text class="cls-12" transform="translate(77.38 61.72)"><tspan x="0" y="0">3</tspan><tspan class="cls-21" x="3.53" y="0">6</tspan><tspan class="cls-19" x="6.9" y="0">.</tspan><tspan class="cls-15" x="8" y="0">7%</tspan></text>
      <text class="cls-13" transform="translate(73.54 37.08)"><tspan class="cls-16" x="0" y="0">12</tspan><tspan class="cls-17" x="5.46" y="0">.</tspan><tspan class="cls-16" x="6.45" y="0">7</tspan><tspan class="cls-10" x="9.39" y="0">€/m2</tspan></text>
      <text class="cls-12" transform="translate(6.55 16.75)"><tspan x="0" y="0">9</tspan><tspan class="cls-20" x="3.49" y="0">8.</tspan><tspan x="8.35" y="0">5%</tspan></text>
      <text class="cls-12" transform="translate(2.27 62.75)"><tspan x="0" y="0">8</tspan><tspan class="cls-21" x="3.57" y="0">4</tspan><tspan class="cls-19" x="6.87" y="0">.</tspan><tspan x="7.97" y="0">7%</tspan></text>
      <text class="cls-12" transform="translate(51.16 26.26)"><tspan x="0" y="0">3</tspan><tspan class="cls-21" x="3.53" y="0">6</tspan><tspan x="6.9" y="0">.2%</tspan></text>
      <text class="cls-18" transform="translate(4.8 5.1)"><tspan x="0" y="0">District </tspan><tspan class="cls-9" x="20.75" y="0">1</tspan><tspan x="23.25" y="0">4</tspan></text>
    </g>
  </g>
</svg>