<?xml version="1.0" encoding="UTF-8"?>
<svg id="Layer_2" data-name="Layer 2" xmlns="http://www.w3.org/2000/svg" viewBox="0 0 108.82 100.06">
  <defs>
    <style>
      .cls-1 {
        fill: #f8d1d4;
      }

      .cls-1, .cls-2, .cls-3, .cls-4, .cls-5 {
        stroke-miterlimit: 10;
      }

      .cls-1, .cls-2, .cls-6, .cls-4, .cls-5 {
        stroke-width: .3px;
      }

      .cls-1, .cls-3, .cls-6, .cls-7, .cls-4, .cls-5 {
        stroke: #010101;
      }

      .cls-8 {
        letter-spacing: -.02em;
      }

      .cls-9 {
        letter-spacing: -.04em;
      }

      .cls-10 {
        letter-spacing: -.13em;
      }

      .cls-11 {
        font-size: 3.6px;
      }

      .cls-12, .cls-13, .cls-14, .cls-15, .cls-4 {
        fill: #9b1c1f;
      }

      .cls-16 {
        letter-spacing: -.02em;
      }

      .cls-16, .cls-17 {
        font-size: 5.4px;
      }

      .cls-18 {
        letter-spacing: -.06em;
      }

      .cls-2 {
        stroke: #bd2026;
      }

      .cls-2, .cls-3, .cls-6, .cls-7 {
        fill: none;
      }

      .cls-19 {
        letter-spacing: -.16em;
      }

      .cls-3 {
        stroke-dasharray: 0 0 .91 .91;
        stroke-width: .5px;
      }

      .cls-20 {
        letter-spacing: 0em;
      }

      .cls-21 {
        fill: #010101;
      }

      .cls-21, .cls-13 {
        font-size: 6px;
      }

      .cls-21, .cls-13, .cls-14 {
        font-family: L10-Regular, L10;
      }

      .cls-7 {
        stroke-width: .08px;
      }

      .cls-22 {
        letter-spacing: 0em;
      }

      .cls-23 {
        letter-spacing: -.07em;
      }

      .cls-15 {
        opacity: .6;
      }

      .cls-5 {
        fill: #fff;
      }
    </style>
  </defs>
  <g id="radar-graphs">
    <g>
      <circle class="cls-12" cx="2.05" cy="55.16" r="2.05"/>
      <path class="cls-1" d="m96.99,55.16c0,24.71-20.03,44.74-44.74,44.74S7.51,79.87,7.51,55.16"/>
      <path class="cls-4" d="m62.64,55.16c0,5.74-4.65,10.39-10.39,10.39s-10.39-4.65-10.39-10.39"/>
      <g>
        <path id="_10000" data-name="10000" class="cls-7" d="m6.61,55.16C6.61,29.97,27.03,9.55,52.22,9.55s45.61,20.42,45.61,45.61H6.61Z"/>
        <path id="_9000" data-name="9000" class="cls-7" d="m11.34,55.16c0-22.58,18.31-40.89,40.89-40.89s40.89,18.31,40.89,40.89"/>
        <path id="_8000" data-name="8000" class="cls-7" d="m15.79,55.16c0-20.12,16.31-36.44,36.44-36.44s36.44,16.31,36.44,36.44"/>
        <path id="_7000" data-name="7000" class="cls-7" d="m20.24,55.16c0-17.67,14.32-31.99,31.99-31.99s31.99,14.32,31.99,31.99"/>
        <path id="_6000" data-name="6000" class="cls-7" d="m24.96,55.16c0-15.05,12.2-27.26,27.26-27.26s27.26,12.2,27.26,27.26"/>
        <path id="_5000" data-name="5000" class="cls-7" d="m29.41,55.16c0-12.6,10.21-22.81,22.81-22.81s22.81,10.21,22.81,22.81"/>
        <path id="_4000" data-name="4000" class="cls-7" d="m34.14,55.16c0-9.98,8.09-18.08,18.08-18.08s18.08,8.09,18.08,18.08h-36.16Z"/>
        <path id="_3000" data-name="3000" class="cls-7" d="m38.59,55.16c0-7.53,6.1-13.63,13.63-13.63s13.63,6.1,13.63,13.63h-27.26Z"/>
        <path id="_2000" data-name="2000" class="cls-7" d="m43.04,55.16c0-5.07,4.11-9.18,9.18-9.18s9.18,4.11,9.18,9.18h-18.36Z"/>
        <path id="_1000" data-name="1000" class="cls-7" d="m47.77,55.16c0-2.46,1.99-4.45,4.45-4.45s4.45,1.99,4.45,4.45"/>
        <path id="_10000-2" data-name="10000" class="cls-7" d="m2.14,55.16C2.14,27.46,24.6,5,52.3,5s50.16,22.46,50.16,50.16H2.14Z"/>
        <g>
          <line class="cls-6" x1="52.22" y1="55.16" x2="52.22" y2="5.1"/>
          <line class="cls-6" x1="52.22" y1="55.16" x2="16.82" y2="19.76"/>
          <line class="cls-6" x1="52.22" y1="55.16" x2="87.62" y2="19.76"/>
          <line class="cls-6" x1="2.14" y1="55.16" x2="102.36" y2="55.16"/>
        </g>
      </g>
      <text class="cls-13" transform="translate(41.24 70.36)"><tspan x="0" y="0">39</tspan><tspan class="cls-18" x="7.02" y="0">1</tspan><tspan class="cls-22" x="9.22" y="0">.</tspan><tspan x="10.56" y="0">8 ha</tspan></text>
      <text class="cls-13" transform="translate(40.21 88.38)"><tspan x="0" y="0">194 p/ha</tspan></text>
      <path class="cls-15" d="m2.41,55.16s5.75-28.54,17.58-32.28c10.03-3.17,20.39,10.04,32.23,13.28,9.18,2.52,13.4-2.75,21.11-2.12,10.25.84,26.75,21.13,26.75,21.13"/>
      <path class="cls-2" d="m2.41,55.16s5.75-28.54,17.58-32.28c10.03-3.17,20.39,10.04,32.23,13.28,9.18,2.52,13.4-2.75,21.11-2.12,10.25.84,26.75,21.13,26.75,21.13"/>
      <circle class="cls-12" cx="52.22" cy="36" r="2.05"/>
      <circle class="cls-12" cx="19.99" cy="22.95" r="2.05"/>
      <circle class="cls-12" cx="73.29" cy="34.05" r="2.05"/>
      <circle class="cls-12" cx="100.08" cy="55.16" r="2.05"/>
      <g>
        <path class="cls-3" d="m8.57,54.74c-.11-21.46,5.46-31.14,10.12-33.3,6.82-3.17,15.69,9.11,33.56,9.93,12.54.57,14.69-1.34,22.38,1.11,5.73,1.83,14.49,14.02,16.61,22.27"/>
        <circle class="cls-5" cx="52.25" cy="31.42" r="1.16"/>
        <circle class="cls-5" cx="74.63" cy="32.35" r="1.16"/>
        <circle class="cls-5" cx="91.16" cy="54.74" r="1.16"/>
        <circle class="cls-5" cx="18.69" cy="21.43" r="1.16"/>
        <circle class="cls-5" cx="8.57" cy="54.74" r="1.16"/>
      </g>
      <text class="cls-13" transform="translate(93.11 61.72)"><tspan x="0" y="0">5</tspan><tspan class="cls-8" x="3.56" y="0">4</tspan><tspan class="cls-10" x="6.86" y="0">.</tspan><tspan x="7.49" y="0">1%</tspan></text>
      <text class="cls-14" transform="translate(77.42 33.51)"><tspan class="cls-17" x="0" y="0">1</tspan><tspan class="cls-16" x="2.3" y="0">3</tspan><tspan class="cls-17" x="5.37" y="0">.2</tspan><tspan class="cls-11" x="9.79" y="0">€/m2</tspan></text>
      <text class="cls-13" transform="translate(6.64 18.68)"><tspan x="0" y="0">9</tspan><tspan class="cls-9" x="3.49" y="0">0</tspan><tspan class="cls-23" x="7.15" y="0">.</tspan><tspan class="cls-20" x="8.14" y="0">9%</tspan></text>
      <text class="cls-13" transform="translate(.67 61.77)"><tspan x="0" y="0">100%</tspan></text>
      <text class="cls-13" transform="translate(54.37 33.77)"><tspan x="0" y="0">2</tspan><tspan class="cls-19" x="3.51" y="0">7</tspan><tspan x="5.81" y="0">.6%</tspan></text>
      <text class="cls-21" transform="translate(5.38 5.1)"><tspan x="0" y="0">District 15</tspan></text>
    </g>
  </g>
</svg>