<?xml version="1.0" encoding="UTF-8"?>
<svg id="Layer_2" data-name="Layer 2" xmlns="http://www.w3.org/2000/svg" viewBox="0 0 106.63 84.23">
  <defs>
    <style>
      .cls-1, .cls-2, .cls-3, .cls-4, .cls-5 {
        stroke-miterlimit: 10;
      }

      .cls-1, .cls-2, .cls-6, .cls-4, .cls-5 {
        stroke-width: .3px;
      }

      .cls-1, .cls-3, .cls-6, .cls-7, .cls-4, .cls-5 {
        stroke: #010101;
      }

      .cls-1, .cls-8 {
        fill: #f8d1d4;
      }

      .cls-9 {
        letter-spacing: -.02em;
      }

      .cls-10 {
        font-size: 3.6px;
      }

      .cls-11, .cls-12, .cls-13, .cls-14, .cls-4 {
        fill: #9b1c1f;
      }

      .cls-15 {
        letter-spacing: -.02em;
      }

      .cls-15, .cls-16, .cls-17, .cls-18 {
        font-size: 5.4px;
      }

      .cls-19 {
        letter-spacing: -.06em;
      }

      .cls-2 {
        stroke: #bd2026;
      }

      .cls-2, .cls-3, .cls-6, .cls-7 {
        fill: none;
      }

      .cls-20 {
        letter-spacing: -.16em;
      }

      .cls-3 {
        stroke-dasharray: 0 0 .91 .91;
        stroke-width: .5px;
      }

      .cls-21 {
        letter-spacing: 0em;
      }

      .cls-16 {
        letter-spacing: 0em;
      }

      .cls-8, .cls-22, .cls-12 {
        font-size: 6px;
      }

      .cls-8, .cls-22, .cls-12, .cls-13 {
        font-family: L10-Regular, L10;
      }

      .cls-22 {
        fill: #010101;
      }

      .cls-23 {
        letter-spacing: -.05em;
      }

      .cls-7 {
        stroke-width: .08px;
      }

      .cls-24 {
        letter-spacing: 0em;
      }

      .cls-25 {
        letter-spacing: -.02em;
      }

      .cls-14 {
        opacity: .6;
      }

      .cls-5 {
        fill: #fff;
      }

      .cls-18 {
        letter-spacing: -.07em;
      }
    </style>
  </defs>
  <g id="radar-graphs">
    <g>
      <path class="cls-1" d="m85.26,55.17c0,15.97-12.94,28.91-28.91,28.91s-28.91-12.94-28.91-28.91"/>
      <path class="cls-4" d="m69.57,55.17c0,7.3-5.92,13.22-13.22,13.22h0c-7.3,0-13.22-5.92-13.22-13.22"/>
      <g>
        <path id="_10000" data-name="10000" class="cls-7" d="m10.73,55.17c0-25.19,20.42-45.61,45.61-45.61s45.61,20.42,45.61,45.61H10.73Z"/>
        <path id="_9000" data-name="9000" class="cls-7" d="m15.46,55.17c0-22.58,18.31-40.89,40.89-40.89s40.89,18.31,40.89,40.89"/>
        <path id="_8000" data-name="8000" class="cls-7" d="m19.91,55.17c0-20.12,16.31-36.44,36.44-36.44s36.44,16.31,36.44,36.44"/>
        <path id="_7000" data-name="7000" class="cls-7" d="m24.36,55.17c0-17.67,14.32-31.99,31.99-31.99s31.99,14.32,31.99,31.99"/>
        <path id="_6000" data-name="6000" class="cls-7" d="m29.09,55.17c0-15.05,12.2-27.26,27.26-27.26s27.26,12.2,27.26,27.26"/>
        <path id="_5000" data-name="5000" class="cls-7" d="m33.54,55.17c0-12.6,10.21-22.81,22.81-22.81s22.81,10.21,22.81,22.81"/>
        <path id="_4000" data-name="4000" class="cls-7" d="m38.27,55.17c0-9.98,8.09-18.08,18.08-18.08s18.08,8.09,18.08,18.08h-36.16Z"/>
        <path id="_3000" data-name="3000" class="cls-7" d="m42.72,55.17c0-7.53,6.1-13.63,13.63-13.63s13.63,6.1,13.63,13.63h-27.26Z"/>
        <path id="_2000" data-name="2000" class="cls-7" d="m47.17,55.17c0-5.07,4.11-9.18,9.18-9.18s9.18,4.11,9.18,9.18h-18.36Z"/>
        <path id="_1000" data-name="1000" class="cls-7" d="m51.9,55.17c0-2.46,1.99-4.45,4.45-4.45s4.45,1.99,4.45,4.45"/>
        <path id="_10000-2" data-name="10000" class="cls-7" d="m6.27,55.17C6.27,27.46,28.72,5,56.43,5s50.16,22.46,50.16,50.16H6.27Z"/>
        <g>
          <line class="cls-6" x1="56.35" y1="55.17" x2="56.35" y2="5.1"/>
          <line class="cls-6" x1="56.35" y1="55.17" x2="20.95" y2="19.76"/>
          <line class="cls-6" x1="56.35" y1="55.17" x2="91.75" y2="19.76"/>
          <line class="cls-6" x1="6.27" y1="55.17" x2="106.48" y2="55.17"/>
        </g>
      </g>
      <text class="cls-8" transform="translate(47.17 61.92)"><tspan x="0" y="0">63</tspan><tspan class="cls-9" x="7.02" y="0">4</tspan><tspan class="cls-23" x="10.32" y="0">.</tspan><tspan class="cls-21" x="11.42" y="0">7 ha</tspan></text>
      <text class="cls-12" transform="translate(47.4 76.36)"><tspan x="0" y="0">81 p/ha</tspan></text>
      <path class="cls-14" d="m10.26,55.17s.97-29.86,11.7-34.39c9.52-4.01,28.38,21.33,34.38,21.33,5.06,0,16.37-13.06,23.74-10.69,6.78,2.18,10.3,23.87,10.3,23.87"/>
      <path class="cls-2" d="m10.26,55.17s.97-29.86,11.7-34.39c9.52-4.01,28.38,21.33,34.38,21.33,5.06,0,16.37-13.06,23.74-10.69,6.78,2.18,10.3,23.87,10.3,23.87"/>
      <circle class="cls-11" cx="56.35" cy="42.11" r="2.05"/>
      <circle class="cls-11" cx="21.96" cy="20.78" r="2.05"/>
      <circle class="cls-11" cx="80.09" cy="31.55" r="2.05"/>
      <circle class="cls-11" cx="90.39" cy="55.29" r="2.05"/>
      <circle class="cls-11" cx="10.26" cy="55.22" r="2.05"/>
      <g>
        <path class="cls-3" d="m13.08,54.96c-.11-21.46,5.46-31.14,10.12-33.3,6.82-3.17,15.69,9.11,33.56,9.93,12.54.57,14.69-1.34,22.38,1.11,5.73,1.83,14.49,14.02,16.61,22.27"/>
        <circle class="cls-5" cx="56.76" cy="31.64" r="1.16"/>
        <circle class="cls-5" cx="79.14" cy="32.57" r="1.16"/>
        <circle class="cls-5" cx="95.68" cy="54.96" r="1.16"/>
        <circle class="cls-5" cx="23.2" cy="21.66" r="1.16"/>
        <circle class="cls-5" cx="13.08" cy="54.96" r="1.16"/>
      </g>
      <text class="cls-12" transform="translate(88.33 61.92)"><tspan x="0" y="0">3</tspan><tspan class="cls-25" x="3.53" y="0">6</tspan><tspan x="6.9" y="0">.6%</tspan></text>
      <text class="cls-13" transform="translate(82.96 32.81)"><tspan class="cls-16" x="0" y="0">1</tspan><tspan class="cls-15" x="2.25" y="0">4</tspan><tspan class="cls-18" x="5.22" y="0">.</tspan><tspan class="cls-17" x="6.1" y="0">9</tspan><tspan class="cls-10" x="9.24" y="0">€/m2</tspan></text>
      <text class="cls-12" transform="translate(11.55 19.03)"><tspan x="0" y="0">9</tspan><tspan class="cls-24" x="3.49" y="0">5</tspan><tspan class="cls-23" x="7" y="0">.</tspan><tspan x="8.1" y="0">7%</tspan></text>
      <text class="cls-12" transform="translate(3.97 61.78)"><tspan x="0" y="0">9</tspan><tspan class="cls-19" x="3.49" y="0">1</tspan><tspan class="cls-23" x="5.69" y="0">.</tspan><tspan x="6.79" y="0">7%</tspan></text>
      <text class="cls-12" transform="translate(57.51 39.17)"><tspan x="0" y="0">1</tspan><tspan class="cls-20" x="2.56" y="0">7</tspan><tspan x="4.85" y="0">.3%</tspan></text>
      <text class="cls-22" transform="translate(0 5.1)"><tspan x="0" y="0">District 18</tspan></text>
    </g>
  </g>
</svg>