<?xml version="1.0" encoding="UTF-8"?>
<svg id="Layer_2" data-name="Layer 2" xmlns="http://www.w3.org/2000/svg" viewBox="0 0 100.4 81.58">
  <defs>
    <style>
      .cls-1, .cls-2, .cls-3, .cls-4, .cls-5 {
        stroke-miterlimit: 10;
      }

      .cls-1, .cls-2, .cls-6, .cls-4, .cls-5 {
        stroke-width: .3px;
      }

      .cls-1, .cls-3, .cls-6, .cls-7, .cls-4, .cls-5 {
        stroke: #010101;
      }

      .cls-1, .cls-8 {
        fill: #f8d1d4;
      }

      .cls-9 {
        letter-spacing: -.02em;
      }

      .cls-10 {
        letter-spacing: -.01em;
      }

      .cls-10, .cls-11, .cls-12, .cls-13 {
        font-size: 5.4px;
      }

      .cls-14 {
        letter-spacing: -.13em;
      }

      .cls-15 {
        font-size: 3.6px;
      }

      .cls-16 {
        letter-spacing: -.14em;
      }

      .cls-17, .cls-18, .cls-19, .cls-20, .cls-4 {
        fill: #9b1c1f;
      }

      .cls-2 {
        stroke: #bd2026;
      }

      .cls-2, .cls-3, .cls-6, .cls-7 {
        fill: none;
      }

      .cls-3 {
        stroke-dasharray: 0 0 .91 .91;
        stroke-width: .5px;
      }

      .cls-21 {
        letter-spacing: 0em;
      }

      .cls-11 {
        letter-spacing: -.05em;
      }

      .cls-8, .cls-22, .cls-18 {
        font-size: 6px;
      }

      .cls-8, .cls-22, .cls-18, .cls-19 {
        font-family: L10-Regular, L10;
      }

      .cls-22 {
        fill: #010101;
      }

      .cls-7 {
        stroke-width: .08px;
      }

      .cls-23 {
        letter-spacing: 0em;
      }

      .cls-24 {
        letter-spacing: -.07em;
      }

      .cls-20 {
        opacity: .6;
      }

      .cls-13 {
        letter-spacing: -.02em;
      }

      .cls-5 {
        fill: #fff;
      }
    </style>
  </defs>
  <g id="radar-graphs">
    <g>
      <circle class="cls-17" cx="84.17" cy="55.26" r="2.05"/>
      <path class="cls-4" d="m76.33,55.21c0,14.47-11.73,26.21-26.21,26.21h0c-14.47,0-26.21-11.73-26.21-26.21"/>
      <path class="cls-1" d="m67.71,55.22c0,9.72-7.88,17.59-17.59,17.59s-17.59-7.88-17.59-17.59"/>
      <g>
        <path id="_10000" data-name="10000" class="cls-7" d="m4.51,55.26C4.51,30.07,24.93,9.65,50.12,9.65s45.61,20.42,45.61,45.61H4.51Z"/>
        <path id="_9000" data-name="9000" class="cls-7" d="m9.23,55.26c0-22.58,18.31-40.89,40.89-40.89s40.89,18.31,40.89,40.89"/>
        <path id="_8000" data-name="8000" class="cls-7" d="m13.68,55.26c0-20.12,16.31-36.44,36.44-36.44s36.44,16.31,36.44,36.44"/>
        <path id="_7000" data-name="7000" class="cls-7" d="m18.13,55.26c0-17.67,14.32-31.99,31.99-31.99s31.99,14.32,31.99,31.99"/>
        <path id="_6000" data-name="6000" class="cls-7" d="m22.86,55.26c0-15.05,12.2-27.26,27.26-27.26s27.26,12.2,27.26,27.26"/>
        <path id="_5000" data-name="5000" class="cls-7" d="m27.31,55.26c0-12.6,10.21-22.81,22.81-22.81s22.81,10.21,22.81,22.81"/>
        <path id="_4000" data-name="4000" class="cls-7" d="m32.04,55.26c0-9.98,8.09-18.08,18.08-18.08s18.08,8.09,18.08,18.08h-36.16Z"/>
        <path id="_3000" data-name="3000" class="cls-7" d="m36.49,55.26c0-7.53,6.1-13.63,13.63-13.63s13.63,6.1,13.63,13.63h-27.26Z"/>
        <path id="_2000" data-name="2000" class="cls-7" d="m40.94,55.26c0-5.07,4.11-9.18,9.18-9.18s9.18,4.11,9.18,9.18h-18.36Z"/>
        <path id="_1000" data-name="1000" class="cls-7" d="m45.67,55.26c0-2.46,1.99-4.45,4.45-4.45s4.45,1.99,4.45,4.45"/>
        <path id="_10000-2" data-name="10000" class="cls-7" d="m.04,55.26C.04,27.56,22.5,5.1,50.2,5.1s50.16,22.46,50.16,50.16H.04Z"/>
        <g>
          <line class="cls-6" x1="50.12" y1="55.26" x2="50.12" y2="5.2"/>
          <line class="cls-6" x1="50.12" y1="55.26" x2="14.72" y2="19.86"/>
          <line class="cls-6" x1="50.12" y1="55.26" x2="85.52" y2="19.86"/>
          <line class="cls-6" x1=".04" y1="55.26" x2="100.26" y2="55.26"/>
        </g>
      </g>
      <text class="cls-18" transform="translate(39.47 64.53)"><tspan x="0" y="0">30 p/ha</tspan></text>
      <text class="cls-8" transform="translate(38.45 77.82)"><tspan x="0" y="0">249</tspan><tspan class="cls-9" x="10.42" y="0">4.</tspan><tspan x="15.01" y="0">4 ha</tspan></text>
      <path class="cls-20" d="m16.08,55.27s-10.1-28.01-.88-35.14c8.25-6.38,26.62,7.88,34.92,10.16,5.96,1.63,17.11-2.3,23.38,2.24,6.03,4.36,10.66,22.7,10.66,22.7"/>
      <path class="cls-2" d="m16.08,55.27s-10.1-28.01-.88-35.14c8.25-6.38,26.62,7.88,34.92,10.16,5.96,1.63,17.11-2.3,23.38,2.24,6.03,4.36,10.66,22.7,10.66,22.7"/>
      <circle class="cls-17" cx="50.13" cy="30.18" r="2.05"/>
      <circle class="cls-17" cx="15.2" cy="20.12" r="2.05"/>
      <circle class="cls-17" cx="73.5" cy="32.33" r="2.05"/>
      <circle class="cls-17" cx="16.08" cy="55.21" r="2.05"/>
      <g>
        <path class="cls-3" d="m6.32,55.06c-.11-21.46,5.46-31.14,10.12-33.3,6.82-3.17,15.69,9.11,33.56,9.93,12.54.57,14.69-1.34,22.38,1.11,5.73,1.83,14.49,14.02,16.61,22.27"/>
        <circle class="cls-5" cx="50" cy="31.74" r="1.16"/>
        <circle class="cls-5" cx="72.38" cy="32.67" r="1.16"/>
        <circle class="cls-5" cx="88.92" cy="55.06" r="1.16"/>
        <circle class="cls-5" cx="16.44" cy="21.75" r="1.16"/>
        <circle class="cls-5" cx="6.32" cy="55.06" r="1.16"/>
      </g>
      <text class="cls-18" transform="translate(80.61 62.02)"><tspan x="0" y="0">37%</tspan></text>
      <text class="cls-19" transform="translate(76.33 33.38)"><tspan class="cls-10" x="0" y="0">1</tspan><tspan class="cls-13" x="2.25" y="0">4</tspan><tspan class="cls-11" x="5.22" y="0">.</tspan><tspan class="cls-12" x="6.21" y="0">7</tspan><tspan class="cls-15" x="9.14" y="0">€/m2</tspan></text>
      <text class="cls-18" transform="translate(5.63 17.65)"><tspan x="0" y="0">9</tspan><tspan class="cls-16" x="3.49" y="0">9</tspan><tspan class="cls-23" x="6.14" y="0">.</tspan><tspan class="cls-21" x="7.49" y="0">8%</tspan></text>
      <text class="cls-18" transform="translate(7.48 61.87)"><tspan x="0" y="0">6</tspan><tspan class="cls-9" x="3.49" y="0">4</tspan><tspan class="cls-24" x="6.79" y="0">.</tspan><tspan class="cls-21" x="7.78" y="0">9%</tspan></text>
      <text class="cls-18" transform="translate(51.16 27.37)"><tspan x="0" y="0">3</tspan><tspan class="cls-9" x="3.53" y="0">6</tspan><tspan class="cls-14" x="6.9" y="0">.</tspan><tspan x="7.52" y="0">1%</tspan></text>
      <text class="cls-22" transform="translate(7.6 5.1)"><tspan x="0" y="0">District 19</tspan></text>
    </g>
  </g>
</svg>