<?xml version="1.0" encoding="UTF-8"?>
<svg id="Layer_2" data-name="Layer 2" xmlns="http://www.w3.org/2000/svg" viewBox="0 0 107.72 94.76">
  <defs>
    <style>
      .cls-1, .cls-2, .cls-3, .cls-4, .cls-5 {
        stroke-miterlimit: 10;
      }

      .cls-1, .cls-2, .cls-6, .cls-4, .cls-5 {
        stroke-width: .3px;
      }

      .cls-1, .cls-3, .cls-6, .cls-7, .cls-4, .cls-5 {
        stroke: #010101;
      }

      .cls-1, .cls-8 {
        fill: #f8d1d4;
      }

      .cls-9 {
        letter-spacing: -.02em;
      }

      .cls-10 {
        font-size: 3.6px;
      }

      .cls-11, .cls-12, .cls-13, .cls-14, .cls-4 {
        fill: #9b1c1f;
      }

      .cls-15 {
        letter-spacing: -.02em;
      }

      .cls-15, .cls-16, .cls-17 {
        font-size: 5.4px;
      }

      .cls-2 {
        stroke: #bd2026;
      }

      .cls-2, .cls-3, .cls-6, .cls-7 {
        fill: none;
      }

      .cls-3 {
        stroke-dasharray: 0 0 .91 .91;
        stroke-width: .5px;
      }

      .cls-18 {
        letter-spacing: 0em;
      }

      .cls-16 {
        letter-spacing: 0em;
      }

      .cls-8, .cls-19, .cls-12 {
        font-size: 6px;
      }

      .cls-8, .cls-19, .cls-12, .cls-13 {
        font-family: L10-Regular, L10;
      }

      .cls-19 {
        fill: #010101;
      }

      .cls-7 {
        stroke-width: .08px;
      }

      .cls-14 {
        opacity: .6;
      }

      .cls-5 {
        fill: #fff;
      }
    </style>
  </defs>
  <g id="radar-graphs">
    <g>
      <path class="cls-1" d="m89.46,55.26c0,21.73-17.61,39.34-39.34,39.34h0c-21.73,0-39.34-17.61-39.34-39.34"/>
      <path class="cls-4" d="m62.66,55.26c0,6.93-5.61,12.54-12.54,12.54h0c-6.93,0-12.54-5.61-12.54-12.54"/>
      <g>
        <path id="_10000" data-name="10000" class="cls-7" d="m4.51,55.26C4.51,30.07,24.93,9.65,50.12,9.65s45.61,20.42,45.61,45.61H4.51Z"/>
        <path id="_9000" data-name="9000" class="cls-7" d="m9.23,55.26c0-22.58,18.31-40.89,40.89-40.89s40.89,18.31,40.89,40.89"/>
        <path id="_8000" data-name="8000" class="cls-7" d="m13.68,55.26c0-20.12,16.31-36.44,36.44-36.44s36.44,16.31,36.44,36.44"/>
        <path id="_7000" data-name="7000" class="cls-7" d="m18.13,55.26c0-17.67,14.32-31.99,31.99-31.99s31.99,14.32,31.99,31.99"/>
        <path id="_6000" data-name="6000" class="cls-7" d="m22.86,55.26c0-15.05,12.2-27.26,27.26-27.26s27.26,12.2,27.26,27.26"/>
        <path id="_5000" data-name="5000" class="cls-7" d="m27.31,55.26c0-12.6,10.21-22.81,22.81-22.81s22.81,10.21,22.81,22.81"/>
        <path id="_4000" data-name="4000" class="cls-7" d="m32.04,55.26c0-9.98,8.09-18.08,18.08-18.08s18.08,8.09,18.08,18.08h-36.16Z"/>
        <path id="_3000" data-name="3000" class="cls-7" d="m36.49,55.26c0-7.53,6.1-13.63,13.63-13.63s13.63,6.1,13.63,13.63h-27.26Z"/>
        <path id="_2000" data-name="2000" class="cls-7" d="m40.94,55.26c0-5.07,4.11-9.18,9.18-9.18s9.18,4.11,9.18,9.18h-18.36Z"/>
        <path id="_1000" data-name="1000" class="cls-7" d="m45.67,55.26c0-2.46,1.99-4.45,4.45-4.45s4.45,1.99,4.45,4.45"/>
        <path id="_10000-2" data-name="10000" class="cls-7" d="m.04,55.26C.04,27.56,22.5,5.1,50.2,5.1s50.16,22.46,50.16,50.16H.04Z"/>
        <g>
          <line class="cls-6" x1="50.12" y1="55.26" x2="50.12" y2="5.2"/>
          <line class="cls-6" x1="50.12" y1="55.26" x2="14.72" y2="19.86"/>
          <line class="cls-6" x1="50.12" y1="55.26" x2="85.52" y2="19.86"/>
          <line class="cls-6" x1=".04" y1="55.26" x2="100.26" y2="55.26"/>
        </g>
      </g>
      <text class="cls-8" transform="translate(43.1 61.95)"><tspan x="0" y="0">571 ha</tspan></text>
      <text class="cls-12" transform="translate(40.94 81.34)"><tspan x="0" y="0">150 p/ha</tspan></text>
      <path class="cls-14" d="m6.91,55.2s-1.87-28.86,7.81-35.34c10.97-7.34,26.84,4.81,35.44,4.81,7.79,0,15.22,4.71,21.54,9.17,6.34,4.47,26.34,21.35,26.34,21.35"/>
      <path class="cls-2" d="m6.91,55.2s-1.87-28.86,7.81-35.34c10.97-7.34,26.84,4.81,35.44,4.81,7.79,0,15.22,4.71,21.54,9.17,6.34,4.47,26.34,21.35,26.34,21.35"/>
      <circle class="cls-11" cx="50.17" cy="24.68" r="2.05"/>
      <circle class="cls-11" cx="71.71" cy="33.85" r="2.05"/>
      <circle class="cls-11" cx="98.05" cy="55.2" r="2.05"/>
      <circle class="cls-11" cx="14.72" cy="19.86" r="2.05"/>
      <circle class="cls-11" cx="6.91" cy="55.26" r="2.05"/>
      <g>
        <path class="cls-3" d="m6.51,54.73c-.11-21.46,5.46-31.14,10.12-33.3,6.82-3.17,15.69,9.11,33.56,9.93,12.54.57,14.69-1.34,22.38,1.11,5.73,1.83,14.49,14.02,16.61,22.27"/>
        <circle class="cls-5" cx="50.19" cy="31.42" r="1.16"/>
        <circle class="cls-5" cx="72.57" cy="32.35" r="1.16"/>
        <circle class="cls-5" cx="89.11" cy="54.73" r="1.16"/>
        <circle class="cls-5" cx="16.63" cy="21.43" r="1.16"/>
        <circle class="cls-5" cx="6.51" cy="54.73" r="1.16"/>
      </g>
      <text class="cls-12" transform="translate(90.27 61.81)"><tspan x="0" y="0">52</tspan><tspan class="cls-9" x="7.07" y="0">.</tspan><tspan x="8.36" y="0">4%</tspan></text>
      <text class="cls-13" transform="translate(75.03 33.85)"><tspan class="cls-17" x="0" y="0">1</tspan><tspan class="cls-15" x="2.3" y="0">3</tspan><tspan class="cls-16" x="5.37" y="0">.</tspan><tspan class="cls-17" x="6.58" y="0">5</tspan><tspan class="cls-10" x="9.79" y="0">€/m2</tspan></text>
      <text class="cls-12" transform="translate(3.4 16.56)"><tspan x="0" y="0">100%</tspan></text>
      <text class="cls-12" transform="translate(.35 61.95)"><tspan x="0" y="0">8</tspan><tspan class="cls-9" x="3.57" y="0">4</tspan><tspan class="cls-18" x="6.87" y="0">.6%</tspan></text>
      <text class="cls-12" transform="translate(52.22 22.59)"><tspan x="0" y="0">4</tspan><tspan class="cls-9" x="3.42" y="0">3</tspan><tspan x="6.83" y="0">.6%</tspan></text>
      <text class="cls-19" transform="translate(7.64 5.1)"><tspan x="0" y="0">District 20</tspan></text>
    </g>
  </g>
</svg>