<?xml version="1.0" encoding="UTF-8"?>
<svg id="Layer_2" data-name="Layer 2" xmlns="http://www.w3.org/2000/svg" viewBox="0 0 100.4 90.4">
  <defs>
    <style>
      .cls-1, .cls-2, .cls-3, .cls-4, .cls-5 {
        stroke-miterlimit: 10;
      }

      .cls-1, .cls-2, .cls-6, .cls-4, .cls-5 {
        stroke-width: .3px;
      }

      .cls-1, .cls-3, .cls-6, .cls-7, .cls-4, .cls-5 {
        stroke: #010101;
      }

      .cls-1, .cls-8 {
        fill: #f8d1d4;
      }

      .cls-9 {
        letter-spacing: -.01em;
      }

      .cls-10 {
        letter-spacing: -.02em;
      }

      .cls-11 {
        letter-spacing: -.02em;
      }

      .cls-12 {
        letter-spacing: -.13em;
      }

      .cls-13 {
        font-size: 3.6px;
        letter-spacing: 0em;
      }

      .cls-14, .cls-15, .cls-16, .cls-17, .cls-4 {
        fill: #9b1c1f;
      }

      .cls-18 {
        letter-spacing: -.02em;
      }

      .cls-18, .cls-19 {
        font-size: 5.4px;
      }

      .cls-20 {
        letter-spacing: -.14em;
      }

      .cls-2 {
        stroke: #bd2026;
      }

      .cls-2, .cls-3, .cls-6, .cls-7 {
        fill: none;
      }

      .cls-21 {
        letter-spacing: 0em;
      }

      .cls-3 {
        stroke-dasharray: 0 0 .91 .91;
        stroke-width: .5px;
      }

      .cls-8, .cls-22, .cls-15 {
        font-size: 6px;
      }

      .cls-8, .cls-22, .cls-15, .cls-16 {
        font-family: L10-Regular, L10;
      }

      .cls-22 {
        fill: #010101;
      }

      .cls-7 {
        stroke-width: .08px;
      }

      .cls-17 {
        opacity: .6;
      }

      .cls-5 {
        fill: #fff;
      }
    </style>
  </defs>
  <g id="radar-graphs">
    <g>
      <path class="cls-4" d="m85.18,55.27c0,19.32-15.66,34.98-34.98,34.98S15.22,74.59,15.22,55.27"/>
      <path class="cls-1" d="m70.77,55.26c0,11.36-9.21,20.57-20.57,20.57h0c-11.36,0-20.57-9.21-20.57-20.57"/>
      <g>
        <path id="_10000" data-name="10000" class="cls-7" d="m4.51,55.26C4.51,30.07,24.93,9.65,50.12,9.65s45.61,20.42,45.61,45.61H4.51Z"/>
        <path id="_9000" data-name="9000" class="cls-7" d="m9.23,55.26c0-22.58,18.31-40.89,40.89-40.89s40.89,18.31,40.89,40.89"/>
        <path id="_8000" data-name="8000" class="cls-7" d="m13.68,55.26c0-20.12,16.31-36.44,36.44-36.44s36.44,16.31,36.44,36.44"/>
        <path id="_7000" data-name="7000" class="cls-7" d="m18.13,55.26c0-17.67,14.32-31.99,31.99-31.99s31.99,14.32,31.99,31.99"/>
        <path id="_6000" data-name="6000" class="cls-7" d="m22.86,55.26c0-15.05,12.2-27.26,27.26-27.26s27.26,12.2,27.26,27.26"/>
        <path id="_5000" data-name="5000" class="cls-7" d="m27.31,55.26c0-12.6,10.21-22.81,22.81-22.81s22.81,10.21,22.81,22.81"/>
        <path id="_4000" data-name="4000" class="cls-7" d="m32.04,55.26c0-9.98,8.09-18.08,18.08-18.08s18.08,8.09,18.08,18.08h-36.16Z"/>
        <path id="_3000" data-name="3000" class="cls-7" d="m36.49,55.26c0-7.53,6.1-13.63,13.63-13.63s13.63,6.1,13.63,13.63h-27.26Z"/>
        <path id="_2000" data-name="2000" class="cls-7" d="m40.94,55.26c0-5.07,4.11-9.18,9.18-9.18s9.18,4.11,9.18,9.18h-18.36Z"/>
        <path id="_1000" data-name="1000" class="cls-7" d="m45.67,55.26c0-2.46,1.99-4.45,4.45-4.45s4.45,1.99,4.45,4.45"/>
        <line class="cls-6" x1="50.12" y1="55.26" x2="50.12" y2="5.2"/>
        <line class="cls-6" x1="50.12" y1="55.26" x2="14.72" y2="19.86"/>
        <line class="cls-6" x1="50.12" y1="55.26" x2="85.52" y2="19.86"/>
        <path id="_10000-2" data-name="10000" class="cls-7" d="m.04,55.26C.04,27.56,22.5,5.1,50.2,5.1s50.16,22.46,50.16,50.16H.04Z"/>
        <line class="cls-6" x1=".04" y1="55.26" x2="100.26" y2="55.26"/>
      </g>
      <text class="cls-15" transform="translate(40.94 65.55)"><tspan x="0" y="0">41 p/ha</tspan></text>
      <text class="cls-8" transform="translate(38.64 82.9)"><tspan x="0" y="0">444</tspan><tspan class="cls-10" x="10.26" y="0">4</tspan><tspan x="13.56" y="0">.3 ha</tspan></text>
      <path class="cls-17" d="m20.52,55.27s-12.28-24.62-5.23-34.83c4.72-6.84,26.64-10.15,34.85-6.84,9.74,3.93,16.43,12.02,21.68,20.08,5.19,7.95,13.36,21.59,13.36,21.59"/>
      <path class="cls-2" d="m20.52,55.27s-12.28-24.62-5.23-34.83c4.72-6.84,26.64-10.15,34.85-6.84,9.74,3.93,16.43,12.02,21.68,20.08,5.19,7.95,13.36,21.59,13.36,21.59"/>
      <circle class="cls-14" cx="50.15" cy="13.61" r="2.05"/>
      <circle class="cls-14" cx="71.83" cy="33.68" r="2.05"/>
      <circle class="cls-14" cx="84.96" cy="55.26" r="2.05"/>
      <circle class="cls-14" cx="15.22" cy="20.44" r="2.05"/>
      <circle class="cls-14" cx="20.52" cy="55.26" r="2.05"/>
      <g>
        <path class="cls-3" d="m6.46,55.13c-.11-21.46,5.46-31.14,10.12-33.3,6.82-3.17,15.69,9.11,33.56,9.93,12.54.57,14.69-1.34,22.38,1.11,5.73,1.83,14.49,14.02,16.61,22.27"/>
        <circle class="cls-5" cx="50.15" cy="31.81" r="1.16"/>
        <circle class="cls-5" cx="72.52" cy="32.74" r="1.16"/>
        <circle class="cls-5" cx="89.06" cy="55.13" r="1.16"/>
        <circle class="cls-5" cx="16.58" cy="21.83" r="1.16"/>
        <circle class="cls-5" cx="6.46" cy="55.13" r="1.16"/>
      </g>
      <text class="cls-15" transform="translate(86.98 61.54)"><tspan x="0" y="0">38%</tspan></text>
      <text class="cls-16" transform="translate(75.63 34.89)"><tspan class="cls-19" x="0" y="0">1</tspan><tspan class="cls-18" x="2.3" y="0">3</tspan><tspan class="cls-19" x="5.37" y="0">.6</tspan><tspan class="cls-13" x="9.77" y="0">€/m2</tspan></text>
      <text class="cls-15" transform="translate(4.56 18.39)"><tspan x="0" y="0">9</tspan><tspan class="cls-9" x="3.49" y="0">8.</tspan><tspan class="cls-21" x="8.35" y="0">5%</tspan></text>
      <text class="cls-15" transform="translate(9.2 52.21)"><tspan x="0" y="0">5</tspan><tspan class="cls-11" x="3.56" y="0">6</tspan><tspan class="cls-12" x="6.94" y="0">.</tspan><tspan class="cls-21" x="7.56" y="0">1%</tspan></text>
      <text class="cls-15" transform="translate(51.31 11.55)"><tspan x="0" y="0">5</tspan><tspan class="cls-20" x="3.56" y="0">9</tspan><tspan class="cls-12" x="6.22" y="0">.</tspan><tspan x="6.84" y="0">1%</tspan></text>
      <text class="cls-22" transform="translate(6.7 5.1)"><tspan x="0" y="0">District 21</tspan></text>
    </g>
  </g>
</svg>