<?xml version="1.0" encoding="UTF-8"?>
<svg id="Layer_2" data-name="Layer 2" xmlns="http://www.w3.org/2000/svg" viewBox="0 0 106.45 108.44">
  <defs>
    <style>
      .cls-1, .cls-2, .cls-3, .cls-4, .cls-5 {
        stroke-miterlimit: 10;
      }

      .cls-1, .cls-2, .cls-6, .cls-4, .cls-5 {
        stroke-width: .3px;
      }

      .cls-1, .cls-3, .cls-6, .cls-7, .cls-4, .cls-5 {
        stroke: #010101;
      }

      .cls-1, .cls-8 {
        fill: #f8d1d4;
      }

      .cls-9 {
        letter-spacing: -.02em;
      }

      .cls-10 {
        letter-spacing: -.04em;
      }

      .cls-11 {
        letter-spacing: -.01em;
      }

      .cls-11, .cls-12 {
        font-size: 5.4px;
      }

      .cls-13 {
        font-size: 3.6px;
      }

      .cls-14, .cls-15, .cls-16, .cls-17, .cls-4 {
        fill: #9b1c1f;
      }

      .cls-18 {
        letter-spacing: -.14em;
      }

      .cls-2 {
        stroke: #bd2026;
      }

      .cls-2, .cls-3, .cls-6, .cls-7 {
        fill: none;
      }

      .cls-3 {
        stroke-dasharray: 0 0 .91 .91;
        stroke-width: .5px;
      }

      .cls-19 {
        letter-spacing: 0em;
      }

      .cls-8, .cls-20, .cls-15 {
        font-size: 6px;
      }

      .cls-8, .cls-20, .cls-15, .cls-16 {
        font-family: L10-Regular, L10;
      }

      .cls-20 {
        fill: #010101;
      }

      .cls-7 {
        stroke-width: .08px;
      }

      .cls-21 {
        letter-spacing: 0em;
      }

      .cls-22 {
        letter-spacing: -.07em;
      }

      .cls-17 {
        opacity: .6;
      }

      .cls-5 {
        fill: #fff;
      }
    </style>
  </defs>
  <g id="radar-graphs">
    <g>
      <path class="cls-4" d="m106.3,55.22c0,29.31-23.76,53.08-53.08,53.08S.15,84.53.15,55.22"/>
      <path class="cls-1" d="m67.95,55.22c0,8.13-6.59,14.72-14.72,14.72s-14.72-6.59-14.72-14.72"/>
      <g>
        <path id="_10000" data-name="10000" class="cls-7" d="m7.61,55.26C7.61,30.07,28.03,9.65,53.23,9.65s45.61,20.42,45.61,45.61H7.61Z"/>
        <path id="_9000" data-name="9000" class="cls-7" d="m12.34,55.26c0-22.58,18.31-40.89,40.89-40.89s40.89,18.31,40.89,40.89"/>
        <path id="_8000" data-name="8000" class="cls-7" d="m16.79,55.26c0-20.12,16.31-36.44,36.44-36.44s36.44,16.31,36.44,36.44"/>
        <path id="_7000" data-name="7000" class="cls-7" d="m21.24,55.26c0-17.67,14.32-31.99,31.99-31.99s31.99,14.32,31.99,31.99"/>
        <path id="_6000" data-name="6000" class="cls-7" d="m25.97,55.26c0-15.05,12.2-27.26,27.26-27.26s27.26,12.2,27.26,27.26"/>
        <path id="_5000" data-name="5000" class="cls-7" d="m30.42,55.26c0-12.6,10.21-22.81,22.81-22.81s22.81,10.21,22.81,22.81"/>
        <path id="_4000" data-name="4000" class="cls-7" d="m35.15,55.26c0-9.98,8.09-18.08,18.08-18.08s18.08,8.09,18.08,18.08h-36.16Z"/>
        <path id="_3000" data-name="3000" class="cls-7" d="m39.6,55.26c0-7.53,6.1-13.63,13.63-13.63s13.63,6.1,13.63,13.63h-27.26Z"/>
        <path id="_2000" data-name="2000" class="cls-7" d="m44.05,55.26c0-5.07,4.11-9.18,9.18-9.18s9.18,4.11,9.18,9.18h-18.36Z"/>
        <path id="_1000" data-name="1000" class="cls-7" d="m48.78,55.26c0-2.46,1.99-4.45,4.45-4.45s4.45,1.99,4.45,4.45"/>
        <path id="_10000-2" data-name="10000" class="cls-7" d="m3.14,55.26C3.14,27.56,25.6,5.1,53.31,5.1s50.16,22.46,50.16,50.16H3.14Z"/>
        <g>
          <line class="cls-6" x1="53.23" y1="55.26" x2="53.23" y2="5.2"/>
          <line class="cls-6" x1="53.23" y1="55.26" x2="17.83" y2="19.86"/>
          <line class="cls-6" x1="53.23" y1="55.26" x2="88.63" y2="19.86"/>
          <line class="cls-6" x1="3.14" y1="55.26" x2="103.36" y2="55.26"/>
        </g>
      </g>
      <text class="cls-15" transform="translate(44.05 63.52)"><tspan x="0" y="0">21 p/ha</tspan></text>
      <text class="cls-8" transform="translate(45.38 89)"><tspan x="0" y="0">10</tspan><tspan class="cls-9" x="6.46" y="0">2</tspan><tspan x="9.85" y="0">2</tspan><tspan class="cls-18" x="13.36" y="0">9</tspan><tspan class="cls-22" x="16.01" y="0">.</tspan><tspan class="cls-19" x="16.99" y="0">9 ha</tspan></text>
      <path class="cls-17" d="m21.3,55.22s-10.53-24.98-2.82-34.7c6.75-8.5,26.09-7.94,34.75-6.14s18.61,8.75,24.73,16.16c5.37,6.51,7.25,24.72,7.25,24.72"/>
      <path class="cls-2" d="m21.3,55.22s-10.53-24.98-2.82-34.7c6.75-8.5,26.09-7.94,34.75-6.14s18.61,8.75,24.73,16.16c5.37,6.51,7.25,24.72,7.25,24.72"/>
      <circle class="cls-14" cx="77.96" cy="30.54" r="2.05"/>
      <circle class="cls-14" cx="85.21" cy="55.36" r="2.05"/>
      <circle class="cls-14" cx="18.48" cy="20.46" r="2.05"/>
      <circle class="cls-14" cx="53.23" cy="14.07" r="2.05"/>
      <circle class="cls-14" cx="21.24" cy="55.36" r="2.05"/>
      <g>
        <path class="cls-3" d="m9.51,55.04c-.11-21.46,5.46-31.14,10.12-33.3,6.82-3.17,15.69,9.11,33.56,9.93,12.54.57,14.69-1.34,22.38,1.11,5.73,1.83,14.49,14.02,16.61,22.27"/>
        <circle class="cls-5" cx="53.19" cy="31.72" r="1.16"/>
        <circle class="cls-5" cx="75.57" cy="32.65" r="1.16"/>
        <circle class="cls-5" cx="92.1" cy="55.04" r="1.16"/>
        <circle class="cls-5" cx="19.63" cy="21.73" r="1.16"/>
        <circle class="cls-5" cx="9.51" cy="55.04" r="1.16"/>
      </g>
      <text class="cls-15" transform="translate(86.18 52.17)"><tspan x="0" y="0">3</tspan><tspan class="cls-9" x="3.53" y="0">4</tspan><tspan x="6.83" y="0">.6%</tspan></text>
      <text class="cls-16" transform="translate(81.31 32.59)"><tspan class="cls-12" x="0" y="0">1</tspan><tspan class="cls-11" x="2.3" y="0">5</tspan><tspan class="cls-12" x="5.45" y="0">.6</tspan><tspan class="cls-13" x="9.86" y="0">€/m2</tspan></text>
      <text class="cls-15" transform="translate(7.61 18.41)"><tspan x="0" y="0">100%</tspan></text>
      <text class="cls-15" transform="translate(13.09 52.17)"><tspan x="0" y="0">6</tspan><tspan class="cls-10" x="3.49" y="0">0</tspan><tspan class="cls-19" x="7.15" y="0">.6%</tspan></text>
      <text class="cls-15" transform="translate(55.28 12.02)"><tspan x="0" y="0">5</tspan><tspan class="cls-21" x="3.56" y="0">8</tspan><tspan class="cls-9" x="7.07" y="0">.</tspan><tspan x="8.36" y="0">4%</tspan></text>
      <text class="cls-20" transform="translate(4.69 5.1)"><tspan x="0" y="0">District </tspan><tspan class="cls-9" x="20.75" y="0">2</tspan><tspan x="24.14" y="0">2</tspan></text>
    </g>
  </g>
</svg>