<?xml version="1.0" encoding="UTF-8"?>
<svg id="Layer_2" data-name="Layer 2" xmlns="http://www.w3.org/2000/svg" viewBox="0 0 105.06 85.09">
  <defs>
    <style>
      .cls-1, .cls-2, .cls-3, .cls-4, .cls-5 {
        stroke-miterlimit: 10;
      }

      .cls-1, .cls-2, .cls-6, .cls-4, .cls-5 {
        stroke-width: .3px;
      }

      .cls-1, .cls-3, .cls-6, .cls-7, .cls-4, .cls-5 {
        stroke: #010101;
      }

      .cls-1, .cls-8 {
        fill: #f8d1d4;
      }

      .cls-9 {
        letter-spacing: -.01em;
      }

      .cls-10 {
        letter-spacing: -.02em;
      }

      .cls-11 {
        font-size: 3.6px;
      }

      .cls-12, .cls-13, .cls-14, .cls-15, .cls-4 {
        fill: #9b1c1f;
      }

      .cls-2 {
        stroke: #bd2026;
      }

      .cls-2, .cls-3, .cls-6, .cls-7 {
        fill: none;
      }

      .cls-16 {
        letter-spacing: -.16em;
      }

      .cls-3 {
        stroke-dasharray: 0 0 .91 .91;
        stroke-width: .5px;
      }

      .cls-17 {
        letter-spacing: 0em;
      }

      .cls-18 {
        letter-spacing: 0em;
      }

      .cls-18, .cls-19 {
        font-size: 5.4px;
      }

      .cls-8, .cls-20, .cls-13 {
        font-size: 6px;
      }

      .cls-8, .cls-20, .cls-13, .cls-14 {
        font-family: L10-Regular, L10;
      }

      .cls-20 {
        fill: #010101;
      }

      .cls-7 {
        stroke-width: .08px;
      }

      .cls-21 {
        letter-spacing: 0em;
      }

      .cls-22 {
        letter-spacing: -.07em;
      }

      .cls-15 {
        opacity: .6;
      }

      .cls-5 {
        fill: #fff;
      }
    </style>
  </defs>
  <g id="radar-graphs">
    <g>
      <path class="cls-4" d="m84.49,55.22c0,16.41-13.3,29.72-29.72,29.72s-29.72-13.3-29.72-29.72"/>
      <path class="cls-1" d="m74.32,55.22c0,10.79-8.74,19.54-19.54,19.54h0c-10.79,0-19.54-8.74-19.54-19.54"/>
      <g>
        <path id="_10000" data-name="10000" class="cls-7" d="m9.16,55.26c0-25.19,20.42-45.61,45.61-45.61s45.61,20.42,45.61,45.61H9.16Z"/>
        <path id="_9000" data-name="9000" class="cls-7" d="m13.89,55.26c0-22.58,18.31-40.89,40.89-40.89s40.89,18.31,40.89,40.89"/>
        <path id="_8000" data-name="8000" class="cls-7" d="m18.34,55.26c0-20.12,16.31-36.44,36.44-36.44s36.44,16.31,36.44,36.44"/>
        <path id="_7000" data-name="7000" class="cls-7" d="m22.79,55.26c0-17.67,14.32-31.99,31.99-31.99s31.99,14.32,31.99,31.99"/>
        <path id="_6000" data-name="6000" class="cls-7" d="m27.52,55.26c0-15.05,12.2-27.26,27.26-27.26s27.26,12.2,27.26,27.26"/>
        <path id="_5000" data-name="5000" class="cls-7" d="m31.97,55.26c0-12.6,10.21-22.81,22.81-22.81s22.81,10.21,22.81,22.81"/>
        <path id="_4000" data-name="4000" class="cls-7" d="m36.7,55.26c0-9.98,8.09-18.08,18.08-18.08s18.08,8.09,18.08,18.08h-36.16Z"/>
        <path id="_3000" data-name="3000" class="cls-7" d="m41.15,55.26c0-7.53,6.1-13.63,13.63-13.63s13.63,6.1,13.63,13.63h-27.26Z"/>
        <path id="_2000" data-name="2000" class="cls-7" d="m45.6,55.26c0-5.07,4.11-9.18,9.18-9.18s9.18,4.11,9.18,9.18h-18.36Z"/>
        <path id="_1000" data-name="1000" class="cls-7" d="m50.33,55.26c0-2.46,1.99-4.45,4.45-4.45s4.45,1.99,4.45,4.45"/>
        <path id="_10000-2" data-name="10000" class="cls-7" d="m4.7,55.26C4.7,27.56,27.15,5.1,54.86,5.1s50.16,22.46,50.16,50.16H4.7Z"/>
        <g>
          <line class="cls-6" x1="54.78" y1="55.26" x2="54.78" y2="5.2"/>
          <line class="cls-6" x1="54.78" y1="55.26" x2="19.38" y2="19.86"/>
          <line class="cls-6" x1="54.78" y1="55.26" x2="90.18" y2="19.86"/>
          <line class="cls-6" x1="4.69" y1="55.26" x2="104.91" y2="55.26"/>
        </g>
      </g>
      <text class="cls-13" transform="translate(45.43 65.5)"><tspan x="0" y="0">37 p/ha</tspan></text>
      <text class="cls-8" transform="translate(43.95 79.98)"><tspan x="0" y="0">320</tspan><tspan class="cls-10" x="10.94" y="0">6</tspan><tspan class="cls-21" x="14.31" y="0">.</tspan><tspan class="cls-17" x="15.65" y="0">8 ha</tspan></text>
      <path class="cls-15" d="m10.71,55.22s-.65-25.76,9.68-34.34c10.97-9.11,27.53-7.4,34.38-4.29,9.46,4.29,9.2,8.08,20.46,18.25s10.04,20.44,10.04,20.44"/>
      <path class="cls-2" d="m10.71,55.22s-.65-25.76,9.68-34.34c10.97-9.11,27.53-7.4,34.38-4.29,9.46,4.29,9.2,8.08,20.46,18.25s10.04,20.44,10.04,20.44"/>
      <circle class="cls-12" cx="54.78" cy="16.59" r="2.05"/>
      <circle class="cls-12" cx="75.24" cy="34.84" r="2.05"/>
      <circle class="cls-12" cx="85.28" cy="55.29" r="2.05"/>
      <circle class="cls-12" cx="20.39" cy="20.88" r="2.05"/>
      <circle class="cls-12" cx="10.71" cy="55.29" r="2.05"/>
      <g>
        <path class="cls-3" d="m11.51,55.05c-.11-21.46,5.46-31.14,10.12-33.3,6.82-3.17,15.69,9.11,33.56,9.93,12.54.57,14.69-1.34,22.38,1.11,5.73,1.83,14.49,14.02,16.61,22.27"/>
        <circle class="cls-5" cx="55.19" cy="31.74" r="1.16"/>
        <circle class="cls-5" cx="77.57" cy="32.67" r="1.16"/>
        <circle class="cls-5" cx="94.11" cy="55.05" r="1.16"/>
        <circle class="cls-5" cx="21.63" cy="21.75" r="1.16"/>
        <circle class="cls-5" cx="11.51" cy="55.05" r="1.16"/>
      </g>
      <text class="cls-13" transform="translate(86.76 61.49)"><tspan x="0" y="0">32</tspan><tspan class="cls-9" x="7.04" y="0">.</tspan><tspan x="8.38" y="0">5%</tspan></text>
      <text class="cls-14" transform="translate(78.73 36.89)"><tspan class="cls-19" x="0" y="0">12</tspan><tspan class="cls-18" x="5.46" y="0">.</tspan><tspan class="cls-19" x="6.67" y="0">8</tspan><tspan class="cls-11" x="9.88" y="0">€/m2</tspan></text>
      <text class="cls-13" transform="translate(9.16 19.42)"><tspan x="0" y="0">9</tspan><tspan class="cls-16" x="3.49" y="0">7</tspan><tspan class="cls-9" x="5.79" y="0">.</tspan><tspan x="7.13" y="0">8%</tspan></text>
      <text class="cls-13" transform="translate(5.79 62.58)"><tspan x="0" y="0">8</tspan><tspan class="cls-16" x="3.57" y="0">7</tspan><tspan class="cls-10" x="5.87" y="0">.</tspan><tspan x="7.15" y="0">4%</tspan></text>
      <text class="cls-13" transform="translate(56.35 14.1)"><tspan x="0" y="0">5</tspan><tspan class="cls-10" x="3.56" y="0">4</tspan><tspan class="cls-22" x="6.86" y="0">.</tspan><tspan x="7.85" y="0">9%</tspan></text>
      <text class="cls-20" transform="translate(0 5.1)"><tspan x="0" y="0">District 23</tspan></text>
    </g>
  </g>
</svg>