<?xml version="1.0" encoding="UTF-8"?>
<svg id="Layer_2" data-name="Layer 2" xmlns="http://www.w3.org/2000/svg" viewBox="0 0 105.2 92.18">
  <defs>
    <style>
      .cls-1, .cls-2, .cls-3, .cls-4, .cls-5 {
        stroke-miterlimit: 10;
      }

      .cls-1, .cls-2, .cls-6, .cls-4, .cls-5 {
        stroke-width: .3px;
      }

      .cls-1, .cls-3, .cls-6, .cls-7, .cls-4, .cls-5 {
        stroke: #010101;
      }

      .cls-1, .cls-8 {
        fill: #f8d1d4;
      }

      .cls-9 {
        letter-spacing: -.01em;
      }

      .cls-10 {
        letter-spacing: -.02em;
      }

      .cls-11 {
        font-size: 3.6px;
        letter-spacing: 0em;
      }

      .cls-12 {
        letter-spacing: -.14em;
      }

      .cls-13, .cls-14, .cls-15, .cls-16, .cls-4 {
        fill: #9b1c1f;
      }

      .cls-17 {
        letter-spacing: -.02em;
      }

      .cls-17, .cls-18, .cls-19 {
        font-size: 5.4px;
      }

      .cls-20 {
        letter-spacing: -.14em;
      }

      .cls-2 {
        stroke: #bd2026;
      }

      .cls-2, .cls-3, .cls-6, .cls-7 {
        fill: none;
      }

      .cls-3 {
        stroke-dasharray: 0 0 .91 .91;
        stroke-width: .5px;
      }

      .cls-21 {
        letter-spacing: 0em;
      }

      .cls-8, .cls-22, .cls-14 {
        font-size: 6px;
      }

      .cls-8, .cls-22, .cls-14, .cls-15 {
        font-family: L10-Regular, L10;
      }

      .cls-22 {
        fill: #010101;
      }

      .cls-7 {
        stroke-width: .08px;
      }

      .cls-23 {
        letter-spacing: 0em;
      }

      .cls-24 {
        letter-spacing: -.07em;
      }

      .cls-16 {
        opacity: .6;
      }

      .cls-5 {
        fill: #fff;
      }

      .cls-19 {
        letter-spacing: -.07em;
      }
    </style>
  </defs>
  <g id="radar-graphs">
    <g>
      <path class="cls-1" d="m91.51,55.26c0,20.31-16.46,36.77-36.76,36.77h0c-20.31,0-36.77-16.46-36.77-36.76"/>
      <path class="cls-4" d="m69.01,55.27c0,7.88-6.39,14.27-14.27,14.27s-14.27-6.39-14.27-14.27"/>
      <text class="cls-8" transform="translate(43.62 62.72)"><tspan x="0" y="0">73</tspan><tspan class="cls-12" x="6.79" y="0">9</tspan><tspan class="cls-23" x="9.44" y="0">.</tspan><tspan class="cls-21" x="10.78" y="0">8 ha</tspan></text>
      <text class="cls-14" transform="translate(43.44 81.05)"><tspan x="0" y="0">131 p/ha</tspan></text>
      <g>
        <path id="_10000" data-name="10000" class="cls-7" d="m9.12,55.26c0-25.19,20.42-45.61,45.61-45.61s45.61,20.42,45.61,45.61H9.12Z"/>
        <path id="_9000" data-name="9000" class="cls-7" d="m13.85,55.26c0-22.58,18.31-40.89,40.89-40.89s40.89,18.31,40.89,40.89"/>
        <path id="_8000" data-name="8000" class="cls-7" d="m18.3,55.26c0-20.12,16.31-36.44,36.44-36.44s36.44,16.31,36.44,36.44"/>
        <path id="_7000" data-name="7000" class="cls-7" d="m22.75,55.26c0-17.67,14.32-31.99,31.99-31.99s31.99,14.32,31.99,31.99"/>
        <path id="_6000" data-name="6000" class="cls-7" d="m27.48,55.26c0-15.05,12.2-27.26,27.26-27.26s27.26,12.2,27.26,27.26"/>
        <path id="_5000" data-name="5000" class="cls-7" d="m31.93,55.26c0-12.6,10.21-22.81,22.81-22.81s22.81,10.21,22.81,22.81"/>
        <path id="_4000" data-name="4000" class="cls-7" d="m36.66,55.26c0-9.98,8.09-18.08,18.08-18.08s18.08,8.09,18.08,18.08h-36.16Z"/>
        <path id="_3000" data-name="3000" class="cls-7" d="m41.11,55.26c0-7.53,6.1-13.63,13.63-13.63s13.63,6.1,13.63,13.63h-27.26Z"/>
        <path id="_2000" data-name="2000" class="cls-7" d="m45.56,55.26c0-5.07,4.11-9.18,9.18-9.18s9.18,4.11,9.18,9.18h-18.36Z"/>
        <path id="_1000" data-name="1000" class="cls-7" d="m50.29,55.26c0-2.46,1.99-4.45,4.45-4.45s4.45,1.99,4.45,4.45"/>
        <path id="_10000-2" data-name="10000" class="cls-7" d="m4.66,55.26C4.66,27.56,27.11,5.1,54.82,5.1s50.16,22.46,50.16,50.16H4.66Z"/>
        <g>
          <line class="cls-6" x1="54.74" y1="55.26" x2="54.74" y2="5.2"/>
          <line class="cls-6" x1="54.74" y1="55.26" x2="19.34" y2="19.86"/>
          <line class="cls-6" x1="54.74" y1="55.26" x2="90.14" y2="19.86"/>
          <line class="cls-6" x1="4.66" y1="55.26" x2="104.87" y2="55.26"/>
        </g>
      </g>
      <path class="cls-16" d="m7.07,55.26s.37-26.69,13.67-33.99c10.55-5.79,26.73,13.35,34.07,13.35s13.2-5.36,22.81-1.7c8.51,3.25,16.93,22.34,16.93,22.34"/>
      <path class="cls-2" d="m7.07,55.26s.37-26.69,13.67-33.99c10.55-5.79,26.73,13.35,34.07,13.35s13.2-5.36,22.81-1.7c8.51,3.25,16.93,22.34,16.93,22.34"/>
      <path class="cls-2" d="m7.07,55.26s.37-26.69,13.67-33.99c10.55-5.79,26.73,13.35,34.07,13.35s13.2-5.36,22.81-1.7c8.51,3.25,16.93,22.34,16.93,22.34"/>
      <circle class="cls-13" cx="54.82" cy="34.62" r="2.05"/>
      <circle class="cls-13" cx="77.63" cy="32.97" r="2.05"/>
      <circle class="cls-13" cx="21.02" cy="21.36" r="2.05"/>
      <circle class="cls-13" cx="94.55" cy="55.17" r="2.05"/>
      <circle class="cls-13" cx="7.07" cy="55.17" r="2.05"/>
      <text class="cls-14" transform="translate(87.79 62.3)"><tspan x="0" y="0">4</tspan><tspan class="cls-10" x="3.42" y="0">3</tspan><tspan class="cls-9" x="6.83" y="0">.</tspan><tspan x="8.17" y="0">8%</tspan></text>
      <text class="cls-15" transform="translate(81.99 33.96)"><tspan class="cls-18" x="0" y="0">1</tspan><tspan class="cls-17" x="2.3" y="0">3</tspan><tspan class="cls-19" x="5.37" y="0">.</tspan><tspan class="cls-18" x="6.25" y="0">9</tspan><tspan class="cls-11" x="9.4" y="0">€/m2</tspan></text>
      <text class="cls-14" transform="translate(9.94 17.64)"><tspan x="0" y="0">9</tspan><tspan class="cls-10" x="3.49" y="0">6</tspan><tspan class="cls-24" x="6.86" y="0">.</tspan><tspan x="7.85" y="0">9%</tspan></text>
      <text class="cls-14" transform="translate(5.02 62.72)"><tspan x="0" y="0">96%</tspan></text>
      <text class="cls-14" transform="translate(56.87 39.27)"><tspan x="0" y="0">2</tspan><tspan class="cls-20" x="3.51" y="0">9</tspan><tspan class="cls-9" x="6.16" y="0">.</tspan><tspan x="7.51" y="0">5%</tspan></text>
      <g>
        <path class="cls-3" d="m11.47,55.19c-.11-21.46,5.46-31.14,10.12-33.3,6.82-3.17,15.69,9.11,33.56,9.93,12.54.57,14.69-1.34,22.38,1.11,5.73,1.83,14.49,14.02,16.61,22.27"/>
        <circle class="cls-5" cx="55.15" cy="31.87" r="1.16"/>
        <circle class="cls-5" cx="77.53" cy="32.8" r="1.16"/>
        <circle class="cls-5" cx="94.07" cy="55.19" r="1.16"/>
        <circle class="cls-5" cx="21.59" cy="21.88" r="1.16"/>
        <circle class="cls-5" cx="11.47" cy="55.19" r="1.16"/>
      </g>
      <text class="cls-22" transform="translate(0 5.1)"><tspan x="0" y="0">District 3</tspan></text>
    </g>
  </g>
</svg>