<?xml version="1.0" encoding="UTF-8"?>
<svg id="Layer_2" data-name="Layer 2" xmlns="http://www.w3.org/2000/svg" viewBox="0 0 104.29 98.29">
  <defs>
    <style>
      .cls-1 {
        fill: #f8d1d4;
      }

      .cls-1, .cls-2, .cls-3, .cls-4, .cls-5 {
        stroke-miterlimit: 10;
      }

      .cls-1, .cls-2, .cls-6, .cls-4, .cls-5 {
        stroke-width: .3px;
      }

      .cls-1, .cls-3, .cls-6, .cls-7, .cls-4, .cls-5 {
        stroke: #010101;
      }

      .cls-8 {
        font-size: 3.6px;
      }

      .cls-9, .cls-10, .cls-11, .cls-12, .cls-4 {
        fill: #9b1c1f;
      }

      .cls-13 {
        letter-spacing: -.02em;
      }

      .cls-13, .cls-14 {
        font-size: 5.4px;
      }

      .cls-2 {
        stroke: #bd2026;
      }

      .cls-2, .cls-3, .cls-6, .cls-7 {
        fill: none;
      }

      .cls-15 {
        letter-spacing: -.16em;
      }

      .cls-3 {
        stroke-dasharray: 0 0 .91 .91;
        stroke-width: .5px;
      }

      .cls-16 {
        letter-spacing: 0em;
      }

      .cls-17 {
        fill: #010101;
      }

      .cls-17, .cls-10 {
        font-size: 6px;
      }

      .cls-17, .cls-10, .cls-11 {
        font-family: L10-Regular, L10;
      }

      .cls-7 {
        stroke-width: .08px;
      }

      .cls-18 {
        letter-spacing: 0em;
      }

      .cls-19 {
        letter-spacing: -.02em;
      }

      .cls-20 {
        letter-spacing: -.07em;
      }

      .cls-12 {
        opacity: .6;
      }

      .cls-5 {
        fill: #fff;
      }
    </style>
  </defs>
  <g id="radar-graphs">
    <g>
      <circle class="cls-9" cx="93.01" cy="54.01" r="2.05"/>
      <g>
        <path class="cls-1" d="m98.17,53.98c0,24.39-19.77,44.16-44.16,44.16S9.85,78.37,9.85,53.98"/>
        <path class="cls-4" d="m61,53.98c0,3.86-3.13,6.99-6.99,6.99s-6.99-3.13-6.99-6.99"/>
        <text class="cls-10" transform="translate(43.34 67.04)"><tspan x="0" y="0">17</tspan><tspan class="cls-15" x="5.81" y="0">7</tspan><tspan class="cls-18" x="8.11" y="0">.</tspan><tspan x="9.46" y="0">5 ha</tspan></text>
        <text class="cls-10" transform="translate(41.92 83.85)"><tspan x="0" y="0">189 p/ha</tspan></text>
        <g>
          <path id="_10000" data-name="10000" class="cls-7" d="m8.39,53.93c0-25.19,20.42-45.61,45.61-45.61s45.61,20.42,45.61,45.61H8.39Z"/>
          <path id="_9000" data-name="9000" class="cls-7" d="m13.12,53.93c0-22.58,18.31-40.89,40.89-40.89s40.89,18.31,40.89,40.89"/>
          <path id="_8000" data-name="8000" class="cls-7" d="m17.57,53.93c0-20.12,16.31-36.44,36.44-36.44s36.44,16.31,36.44,36.44"/>
          <path id="_7000" data-name="7000" class="cls-7" d="m22.02,53.93c0-17.67,14.32-31.99,31.99-31.99s31.99,14.32,31.99,31.99"/>
          <path id="_6000" data-name="6000" class="cls-7" d="m26.75,53.93c0-15.05,12.2-27.26,27.26-27.26s27.26,12.2,27.26,27.26"/>
          <path id="_5000" data-name="5000" class="cls-7" d="m31.2,53.93c0-12.6,10.21-22.81,22.81-22.81s22.81,10.21,22.81,22.81"/>
          <path id="_4000" data-name="4000" class="cls-7" d="m35.93,53.93c0-9.98,8.09-18.08,18.08-18.08s18.08,8.09,18.08,18.08h-36.16Z"/>
          <path id="_3000" data-name="3000" class="cls-7" d="m40.38,53.93c0-7.53,6.1-13.63,13.63-13.63s13.63,6.1,13.63,13.63h-27.26Z"/>
          <path id="_2000" data-name="2000" class="cls-7" d="m44.83,53.93c0-5.07,4.11-9.18,9.18-9.18s9.18,4.11,9.18,9.18h-18.36Z"/>
          <path id="_1000" data-name="1000" class="cls-7" d="m49.56,53.93c0-2.46,1.99-4.45,4.45-4.45s4.45,1.99,4.45,4.45"/>
          <path id="_10000-2" data-name="10000" class="cls-7" d="m3.93,53.93C3.93,26.23,26.39,3.77,54.09,3.77s50.16,22.46,50.16,50.16H3.93Z"/>
          <g>
            <line class="cls-6" x1="54.01" y1="53.93" x2="54.01" y2="3.86"/>
            <line class="cls-6" x1="54.01" y1="53.93" x2="18.61" y2="18.53"/>
            <line class="cls-6" x1="54.01" y1="53.93" x2="89.41" y2="18.53"/>
            <line class="cls-6" x1="3.93" y1="53.93" x2="104.15" y2="53.93"/>
          </g>
        </g>
        <path class="cls-12" d="m3.94,53.93s4.93-28.72,16.23-33.83c8.22-3.71,26.49,21.08,33.83,21.08,5.4,0,13.63-12.28,21.75-8.83,8.39,3.57,17.52,21.66,17.52,21.66"/>
        <path class="cls-2" d="m3.94,53.93s4.93-28.72,16.23-33.83c8.22-3.71,26.49,21.08,33.83,21.08,5.4,0,13.63-12.28,21.75-8.83,8.39,3.57,17.52,21.66,17.52,21.66"/>
        <path class="cls-2" d="m3.94,53.93s4.93-28.72,16.23-33.83c8.22-3.71,26.49,21.08,33.83,21.08,5.4,0,13.63-12.28,21.75-8.83,8.39,3.57,17.52,21.66,17.52,21.66"/>
        <circle class="cls-9" cx="54.09" cy="41.18" r="2.05"/>
        <circle class="cls-9" cx="20.18" cy="20.1" r="2.05"/>
        <circle class="cls-9" cx="75.76" cy="32.35" r="2.05"/>
        <circle class="cls-9" cx="3.93" cy="53.84" r="2.05"/>
        <text class="cls-10" transform="translate(86 60.97)"><tspan x="0" y="0">4</tspan><tspan class="cls-19" x="3.42" y="0">3.</tspan><tspan class="cls-16" x="8.11" y="0">4%</tspan></text>
        <text class="cls-11" transform="translate(81.28 32.65)"><tspan class="cls-14" x="0" y="0">1</tspan><tspan class="cls-13" x="2.3" y="0">3</tspan><tspan class="cls-14" x="5.37" y="0">.6</tspan><tspan class="cls-8" x="9.77" y="0">€/m2</tspan></text>
        <text class="cls-10" transform="translate(10 17.8)"><tspan x="0" y="0">9</tspan><tspan class="cls-19" x="3.49" y="0">4</tspan><tspan class="cls-20" x="6.79" y="0">.</tspan><tspan class="cls-16" x="7.78" y="0">9%</tspan></text>
        <text class="cls-10" transform="translate(1.87 61.39)"><tspan x="0" y="0">100%</tspan></text>
        <text class="cls-10" transform="translate(55.5 37.94)"><tspan x="0" y="0">1</tspan><tspan class="cls-15" x="2.56" y="0">7</tspan><tspan x="4.85" y="0">.3%</tspan></text>
        <g>
          <path class="cls-3" d="m10.21,53.85c-.11-21.46,5.46-31.14,10.12-33.3,6.82-3.17,15.69,9.11,33.56,9.93,12.54.57,14.69-1.34,22.38,1.11,5.73,1.83,14.49,14.02,16.61,22.27"/>
          <circle class="cls-5" cx="53.89" cy="30.54" r="1.16"/>
          <circle class="cls-5" cx="76.27" cy="31.47" r="1.16"/>
          <circle class="cls-5" cx="92.8" cy="53.85" r="1.16"/>
          <circle class="cls-5" cx="20.33" cy="20.55" r="1.16"/>
          <circle class="cls-5" cx="10.21" cy="53.85" r="1.16"/>
        </g>
      </g>
      <text class="cls-17" transform="translate(0 5.1)"><tspan x="0" y="0">District 4</tspan></text>
    </g>
  </g>
</svg>