<?xml version="1.0" encoding="UTF-8"?>
<svg id="Layer_2" data-name="Layer 2" xmlns="http://www.w3.org/2000/svg" viewBox="0 0 111.05 108.83">
  <defs>
    <style>
      .cls-1 {
        fill: #f8d1d4;
      }

      .cls-1, .cls-2, .cls-3, .cls-4, .cls-5 {
        stroke-miterlimit: 10;
      }

      .cls-1, .cls-2, .cls-6, .cls-4, .cls-5 {
        stroke-width: .3px;
      }

      .cls-1, .cls-3, .cls-6, .cls-7, .cls-4, .cls-5 {
        stroke: #010101;
      }

      .cls-8 {
        letter-spacing: -.02em;
      }

      .cls-9 {
        letter-spacing: -.01em;
      }

      .cls-9, .cls-10, .cls-11 {
        font-size: 5.4px;
      }

      .cls-12 {
        font-size: 3.6px;
      }

      .cls-13 {
        letter-spacing: -.14em;
      }

      .cls-14, .cls-15, .cls-16, .cls-17, .cls-4 {
        fill: #9b1c1f;
      }

      .cls-18 {
        letter-spacing: -.06em;
      }

      .cls-2 {
        stroke: #bd2026;
      }

      .cls-2, .cls-3, .cls-6, .cls-7 {
        fill: none;
      }

      .cls-3 {
        stroke-dasharray: 0 0 .91 .91;
        stroke-width: .5px;
      }

      .cls-19 {
        letter-spacing: 0em;
      }

      .cls-20 {
        fill: #010101;
      }

      .cls-20, .cls-15 {
        font-size: 6px;
      }

      .cls-20, .cls-15, .cls-16 {
        font-family: L10-Regular, L10;
      }

      .cls-7 {
        stroke-width: .08px;
      }

      .cls-21 {
        letter-spacing: 0em;
      }

      .cls-22 {
        letter-spacing: -.07em;
      }

      .cls-17 {
        opacity: .6;
      }

      .cls-11 {
        letter-spacing: -.02em;
      }

      .cls-5 {
        fill: #fff;
      }
    </style>
  </defs>
  <g id="radar-graphs">
    <g>
      <path class="cls-1" d="m107.98,55.6c0,29.31-23.76,53.08-53.08,53.08S1.83,84.92,1.83,55.6"/>
      <path class="cls-4" d="m62.35,55.6c0,4.11-3.33,7.44-7.44,7.44s-7.44-3.33-7.44-7.44"/>
      <text class="cls-15" transform="translate(43.73 68.67)"><tspan x="0" y="0">20</tspan><tspan class="cls-18" x="7.41" y="0">1</tspan><tspan x="9.61" y="0">.2 ha</tspan></text>
      <text class="cls-15" transform="translate(42.37 88.65)"><tspan x="0" y="0">273 p/ha</tspan></text>
      <g>
        <path id="_10000" data-name="10000" class="cls-7" d="m9.29,55.6c0-25.19,20.42-45.61,45.61-45.61s45.61,20.42,45.61,45.61H9.29Z"/>
        <path id="_9000" data-name="9000" class="cls-7" d="m14.02,55.6c0-22.58,18.31-40.89,40.89-40.89s40.89,18.31,40.89,40.89"/>
        <path id="_8000" data-name="8000" class="cls-7" d="m18.47,55.6c0-20.12,16.31-36.44,36.44-36.44s36.44,16.31,36.44,36.44"/>
        <path id="_7000" data-name="7000" class="cls-7" d="m22.92,55.6c0-17.67,14.32-31.99,31.99-31.99s31.99,14.32,31.99,31.99"/>
        <path id="_6000" data-name="6000" class="cls-7" d="m27.65,55.6c0-15.05,12.2-27.26,27.26-27.26s27.26,12.2,27.26,27.26"/>
        <path id="_5000" data-name="5000" class="cls-7" d="m32.1,55.6c0-12.6,10.21-22.81,22.81-22.81s22.81,10.21,22.81,22.81"/>
        <path id="_4000" data-name="4000" class="cls-7" d="m36.83,55.6c0-9.98,8.09-18.08,18.08-18.08s18.08,8.09,18.08,18.08h-36.16Z"/>
        <path id="_3000" data-name="3000" class="cls-7" d="m41.28,55.6c0-7.53,6.1-13.63,13.63-13.63s13.63,6.1,13.63,13.63h-27.26Z"/>
        <path id="_2000" data-name="2000" class="cls-7" d="m45.73,55.6c0-5.07,4.11-9.18,9.18-9.18s9.18,4.11,9.18,9.18h-18.36Z"/>
        <path id="_1000" data-name="1000" class="cls-7" d="m50.46,55.6c0-2.46,1.99-4.45,4.45-4.45s4.45,1.99,4.45,4.45"/>
        <path id="_10000-2" data-name="10000" class="cls-7" d="m4.82,55.6C4.82,27.9,27.28,5.44,54.99,5.44s50.16,22.46,50.16,50.16H4.82Z"/>
        <g>
          <line class="cls-6" x1="54.91" y1="55.6" x2="54.91" y2="5.54"/>
          <line class="cls-6" x1="54.91" y1="55.6" x2="19.51" y2="20.2"/>
          <line class="cls-6" x1="54.91" y1="55.6" x2="90.31" y2="20.2"/>
          <line class="cls-6" x1="4.82" y1="55.6" x2="105.04" y2="55.6"/>
        </g>
      </g>
      <path class="cls-17" d="m4.58,55.6s7.04-27.3,18.65-31.69c8.88-3.35,24.34,13.61,31.69,13.61,5.4,0,15.33-8.77,23.49-5.41,7.81,3.22,21.36,23.52,21.36,23.52"/>
      <path class="cls-2" d="m4.58,55.6s7.04-27.3,18.65-31.69c8.88-3.35,24.34,13.61,31.69,13.61,5.4,0,15.33-8.77,23.49-5.41,7.81,3.22,21.36,23.52,21.36,23.52"/>
      <path class="cls-2" d="m4.58,55.6s7.04-27.3,18.65-31.69c8.88-3.35,24.34,13.61,31.69,13.61,5.4,0,15.33-8.77,23.49-5.41,7.81,3.22,21.36,23.52,21.36,23.52"/>
      <circle class="cls-14" cx="54.99" cy="37.39" r="2.05"/>
      <circle class="cls-14" cx="23.2" cy="23.92" r="2.05"/>
      <circle class="cls-14" cx="78.4" cy="32.23" r="2.05"/>
      <circle class="cls-14" cx="99.76" cy="55.46" r="2.05"/>
      <text class="cls-15" transform="translate(93.85 62.6)"><tspan x="0" y="0">4</tspan><tspan class="cls-8" x="3.42" y="0">3.</tspan><tspan x="8.11" y="0">4%</tspan></text>
      <text class="cls-16" transform="translate(81.88 32.66)"><tspan class="cls-9" x="0" y="0">1</tspan><tspan class="cls-11" x="2.25" y="0">4</tspan><tspan class="cls-10" x="5.22" y="0">.6</tspan><tspan class="cls-12" x="9.62" y="0">€/m2</tspan></text>
      <text class="cls-15" transform="translate(10.09 19.42)"><tspan x="0" y="0">8</tspan><tspan class="cls-13" x="3.57" y="0">9</tspan><tspan class="cls-22" x="6.22" y="0">.</tspan><tspan class="cls-19" x="7.21" y="0">9%</tspan></text>
      <text class="cls-15" transform="translate(.07 62.6)"><tspan x="0" y="0">100%</tspan></text>
      <text class="cls-15" transform="translate(57.86 39.61)"><tspan x="0" y="0">2</tspan><tspan class="cls-21" x="3.51" y="0">5</tspan><tspan class="cls-8" x="7.01" y="0">.</tspan><tspan x="8.3" y="0">4%</tspan></text>
      <g>
        <path class="cls-3" d="m11.25,55.22c-.11-21.46,5.46-31.14,10.12-33.3,6.82-3.17,15.69,9.11,33.56,9.93,12.54.57,14.69-1.34,22.38,1.11,5.73,1.83,14.49,14.02,16.61,22.27"/>
        <circle class="cls-5" cx="54.93" cy="31.9" r="1.16"/>
        <circle class="cls-5" cx="77.31" cy="32.83" r="1.16"/>
        <circle class="cls-5" cx="93.85" cy="55.22" r="1.16"/>
        <circle class="cls-5" cx="21.37" cy="21.91" r="1.16"/>
        <circle class="cls-5" cx="11.25" cy="55.22" r="1.16"/>
      </g>
      <circle class="cls-14" cx="4.58" cy="55.63" r="2.05"/>
      <text class="cls-20" transform="translate(0 5.1)"><tspan x="0" y="0">District 5</tspan></text>
    </g>
  </g>
</svg>