<?xml version="1.0" encoding="UTF-8"?>
<svg id="Layer_2" data-name="Layer 2" xmlns="http://www.w3.org/2000/svg" viewBox="0 0 107.32 103.03">
  <defs>
    <style>
      .cls-1 {
        fill: #f8d1d4;
      }

      .cls-1, .cls-2, .cls-3, .cls-4, .cls-5 {
        stroke-miterlimit: 10;
      }

      .cls-1, .cls-2, .cls-6, .cls-4, .cls-5 {
        stroke-width: .3px;
      }

      .cls-1, .cls-3, .cls-6, .cls-7, .cls-4, .cls-5 {
        stroke: #010101;
      }

      .cls-8 {
        letter-spacing: -.01em;
      }

      .cls-9 {
        letter-spacing: -.01em;
      }

      .cls-9, .cls-10, .cls-11, .cls-12 {
        font-size: 5.4px;
      }

      .cls-13 {
        font-size: 3.6px;
        letter-spacing: 0em;
      }

      .cls-14, .cls-15, .cls-16, .cls-17, .cls-4 {
        fill: #9b1c1f;
      }

      .cls-18 {
        letter-spacing: -.06em;
      }

      .cls-10 {
        letter-spacing: -.13em;
      }

      .cls-2 {
        stroke: #bd2026;
      }

      .cls-2, .cls-3, .cls-6, .cls-7 {
        fill: none;
      }

      .cls-11 {
        letter-spacing: 0em;
      }

      .cls-19 {
        letter-spacing: 0em;
      }

      .cls-20 {
        letter-spacing: -.16em;
      }

      .cls-21 {
        letter-spacing: -.16em;
      }

      .cls-3 {
        stroke-dasharray: 0 0 .91 .91;
        stroke-width: .5px;
      }

      .cls-22 {
        fill: #010101;
      }

      .cls-22, .cls-15 {
        font-size: 6px;
      }

      .cls-22, .cls-15, .cls-16 {
        font-family: L10-Regular, L10;
      }

      .cls-23 {
        letter-spacing: -.05em;
      }

      .cls-7 {
        stroke-width: .08px;
      }

      .cls-17 {
        opacity: .6;
      }

      .cls-12 {
        letter-spacing: -.02em;
      }

      .cls-5 {
        fill: #fff;
      }
    </style>
  </defs>
  <g id="radar-graphs">
    <g>
      <path class="cls-1" d="m104.17,55.67c0,26.07-21.14,47.21-47.21,47.21S9.75,81.74,9.75,55.67"/>
      <path class="cls-4" d="m63.29,55.67c0,3.5-2.83,6.33-6.33,6.33h0c-3.5,0-6.33-2.83-6.33-6.33"/>
      <g>
        <path id="_10000" data-name="10000" class="cls-7" d="m11.42,55.61c0-25.19,20.42-45.61,45.61-45.61s45.61,20.42,45.61,45.61H11.42Z"/>
        <path id="_9000" data-name="9000" class="cls-7" d="m16.15,55.61c0-22.58,18.31-40.89,40.89-40.89s40.89,18.31,40.89,40.89"/>
        <path id="_8000" data-name="8000" class="cls-7" d="m20.6,55.61c0-20.12,16.31-36.44,36.44-36.44s36.44,16.31,36.44,36.44"/>
        <path id="_7000" data-name="7000" class="cls-7" d="m25.05,55.61c0-17.67,14.32-31.99,31.99-31.99s31.99,14.32,31.99,31.99"/>
        <path id="_6000" data-name="6000" class="cls-7" d="m29.78,55.61c0-15.05,12.2-27.26,27.26-27.26s27.26,12.2,27.26,27.26"/>
        <path id="_5000" data-name="5000" class="cls-7" d="m34.23,55.61c0-12.6,10.21-22.81,22.81-22.81s22.81,10.21,22.81,22.81"/>
        <path id="_4000" data-name="4000" class="cls-7" d="m38.96,55.61c0-9.98,8.09-18.08,18.08-18.08s18.08,8.09,18.08,18.08h-36.16Z"/>
        <path id="_3000" data-name="3000" class="cls-7" d="m43.41,55.61c0-7.53,6.1-13.63,13.63-13.63s13.63,6.1,13.63,13.63h-27.26Z"/>
        <path id="_2000" data-name="2000" class="cls-7" d="m47.86,55.61c0-5.07,4.11-9.18,9.18-9.18s9.18,4.11,9.18,9.18h-18.36Z"/>
        <path id="_1000" data-name="1000" class="cls-7" d="m52.59,55.61c0-2.46,1.99-4.45,4.45-4.45s4.45,1.99,4.45,4.45"/>
        <line class="cls-6" x1="57.04" y1="55.61" x2="57.04" y2="5.54"/>
        <line class="cls-6" x1="57.04" y1="55.61" x2="21.64" y2="20.2"/>
        <line class="cls-6" x1="57.04" y1="55.61" x2="92.44" y2="20.2"/>
        <path id="_10000-2" data-name="10000" class="cls-7" d="m6.96,55.61C6.96,27.9,29.41,5.44,57.12,5.44s50.16,22.46,50.16,50.16H6.96Z"/>
        <line class="cls-6" x1="6.96" y1="55.61" x2="107.17" y2="55.61"/>
      </g>
      <text class="cls-15" transform="translate(48.14 68.15)"><tspan x="0" y="0">17</tspan><tspan class="cls-21" x="5.81" y="0">7</tspan><tspan class="cls-8" x="8.11" y="0">.</tspan><tspan x="9.46" y="0">5 ha</tspan></text>
      <text class="cls-15" transform="translate(46.57 85.84)"><tspan x="0" y="0">216 p/ha</tspan></text>
      <path class="cls-17" d="m6.92,55.66s4.7-28.58,15.52-34.65c8.29-4.65,27.22,21.73,34.56,21.73s13.66-12.22,22.09-9.41,15.36,22.32,15.36,22.32"/>
      <path class="cls-2" d="m6.92,55.66s4.7-28.58,15.52-34.65c8.29-4.65,27.22,21.73,34.56,21.73s13.66-12.22,22.09-9.41,15.36,22.32,15.36,22.32"/>
      <circle class="cls-14" cx="56.78" cy="42.75" r="2.05"/>
      <circle class="cls-14" cx="22.45" cy="21.22" r="2.05"/>
      <circle class="cls-14" cx="79.1" cy="33.33" r="2.05"/>
      <circle class="cls-14" cx="94.45" cy="55.65" r="2.05"/>
      <circle class="cls-14" cx="6.96" cy="55.65" r="2.05"/>
      <g>
        <path class="cls-3" d="m13.33,55.5c-.11-21.46,5.46-31.14,10.12-33.3,6.82-3.17,15.69,9.11,33.56,9.93,12.54.57,14.69-1.34,22.38,1.11,5.73,1.83,14.49,14.02,16.61,22.27"/>
        <circle class="cls-5" cx="57.01" cy="32.18" r="1.16"/>
        <circle class="cls-5" cx="79.39" cy="33.11" r="1.16"/>
        <circle class="cls-5" cx="95.92" cy="55.5" r="1.16"/>
        <circle class="cls-5" cx="23.45" cy="22.19" r="1.16"/>
        <circle class="cls-5" cx="13.33" cy="55.5" r="1.16"/>
      </g>
      <text class="cls-15" transform="translate(87.15 63.11)"><tspan x="0" y="0">4</tspan><tspan class="cls-18" x="3.42" y="0">1</tspan><tspan class="cls-8" x="5.62" y="0">.</tspan><tspan x="6.96" y="0">5%</tspan></text>
      <text class="cls-16" transform="translate(82.5 33.34)"><tspan class="cls-9" x="0" y="0">1</tspan><tspan class="cls-12" x="2.25" y="0">4</tspan><tspan class="cls-10" x="5.22" y="0">.</tspan><tspan class="cls-11" x="5.78" y="0">1</tspan><tspan class="cls-13" x="8.08" y="0">€/m2</tspan></text>
      <text class="cls-15" transform="translate(5.24 18.46)"><tspan x="0" y="0">9</tspan><tspan class="cls-8" x="3.49" y="0">8.</tspan><tspan class="cls-19" x="8.35" y="0">5%</tspan></text>
      <text class="cls-15" transform="translate(0 63.11)"><tspan x="0" y="0">100%</tspan></text>
      <text class="cls-15" transform="translate(51.32 39.58)"><tspan x="0" y="0">1</tspan><tspan class="cls-20" x="2.56" y="0">7</tspan><tspan class="cls-23" x="4.85" y="0">.</tspan><tspan x="5.96" y="0">7%</tspan></text>
      <text class="cls-22" transform="translate(2.09 5.1)"><tspan x="0" y="0">District 6</tspan></text>
    </g>
  </g>
</svg>