<?xml version="1.0" encoding="UTF-8"?>
<svg id="Layer_2" data-name="Layer 2" xmlns="http://www.w3.org/2000/svg" viewBox="0 0 105.99 104.05">
  <defs>
    <style>
      .cls-1 {
        fill: #f8d1d4;
      }

      .cls-1, .cls-2, .cls-3, .cls-4, .cls-5 {
        stroke-miterlimit: 10;
      }

      .cls-1, .cls-2, .cls-6, .cls-4, .cls-5 {
        stroke-width: .3px;
      }

      .cls-1, .cls-3, .cls-6, .cls-7, .cls-4, .cls-5 {
        stroke: #010101;
      }

      .cls-8 {
        letter-spacing: -.01em;
      }

      .cls-9 {
        letter-spacing: -.02em;
      }

      .cls-10 {
        letter-spacing: -.04em;
      }

      .cls-11 {
        letter-spacing: -.13em;
      }

      .cls-12 {
        font-size: 3.6px;
        letter-spacing: 0em;
      }

      .cls-13, .cls-14, .cls-15, .cls-16, .cls-4 {
        fill: #9b1c1f;
      }

      .cls-17 {
        letter-spacing: -.06em;
      }

      .cls-2 {
        stroke: #bd2026;
      }

      .cls-2, .cls-3, .cls-6, .cls-7 {
        fill: none;
      }

      .cls-18 {
        letter-spacing: 0em;
      }

      .cls-3 {
        stroke-dasharray: 0 0 .91 .91;
        stroke-width: .5px;
      }

      .cls-19 {
        font-size: 5.4px;
      }

      .cls-20 {
        fill: #010101;
      }

      .cls-20, .cls-14 {
        font-size: 6px;
      }

      .cls-20, .cls-14, .cls-15 {
        font-family: L10-Regular, L10;
      }

      .cls-7 {
        stroke-width: .08px;
      }

      .cls-16 {
        opacity: .6;
      }

      .cls-5 {
        fill: #fff;
      }
    </style>
  </defs>
  <g id="radar-graphs">
    <g>
      <path class="cls-1" d="m103.96,55.61c0,26.67-21.62,48.29-48.29,48.29S7.38,82.28,7.38,55.61"/>
      <path class="cls-4" d="m61.15,55.61c0,3.03-2.45,5.48-5.48,5.48s-5.48-2.45-5.48-5.48"/>
      <g>
        <path id="_10000" data-name="10000" class="cls-7" d="m10.09,55.6c0-25.19,20.42-45.61,45.61-45.61s45.61,20.42,45.61,45.61H10.09Z"/>
        <path id="_9000" data-name="9000" class="cls-7" d="m14.82,55.6c0-22.58,18.31-40.89,40.89-40.89s40.89,18.31,40.89,40.89"/>
        <path id="_8000" data-name="8000" class="cls-7" d="m19.27,55.6c0-20.12,16.31-36.44,36.44-36.44s36.44,16.31,36.44,36.44"/>
        <path id="_7000" data-name="7000" class="cls-7" d="m23.72,55.6c0-17.67,14.32-31.99,31.99-31.99s31.99,14.32,31.99,31.99"/>
        <path id="_6000" data-name="6000" class="cls-7" d="m28.45,55.6c0-15.05,12.2-27.26,27.26-27.26s27.26,12.2,27.26,27.26"/>
        <path id="_5000" data-name="5000" class="cls-7" d="m32.9,55.6c0-12.6,10.21-22.81,22.81-22.81s22.81,10.21,22.81,22.81"/>
        <path id="_4000" data-name="4000" class="cls-7" d="m37.62,55.6c0-9.98,8.09-18.08,18.08-18.08s18.08,8.09,18.08,18.08h-36.16Z"/>
        <path id="_3000" data-name="3000" class="cls-7" d="m42.07,55.6c0-7.53,6.1-13.63,13.63-13.63s13.63,6.1,13.63,13.63h-27.26Z"/>
        <path id="_2000" data-name="2000" class="cls-7" d="m46.52,55.6c0-5.07,4.11-9.18,9.18-9.18s9.18,4.11,9.18,9.18h-18.36Z"/>
        <path id="_1000" data-name="1000" class="cls-7" d="m51.25,55.6c0-2.46,1.99-4.45,4.45-4.45s4.45,1.99,4.45,4.45"/>
        <path id="_10000-2" data-name="10000" class="cls-7" d="m5.62,55.6C5.62,27.9,28.08,5.44,55.78,5.44s50.16,22.46,50.16,50.16H5.62Z"/>
        <g>
          <line class="cls-6" x1="55.7" y1="55.6" x2="55.7" y2="5.54"/>
          <line class="cls-6" x1="55.7" y1="55.6" x2="20.3" y2="20.2"/>
          <line class="cls-6" x1="55.7" y1="55.6" x2="91.1" y2="20.2"/>
          <line class="cls-6" x1="5.62" y1="55.61" x2="105.84" y2="55.61"/>
        </g>
      </g>
      <text class="cls-14" transform="translate(48.65 66.49)"><tspan x="0" y="0">109 ha</tspan></text>
      <text class="cls-14" transform="translate(45.42 85.79)"><tspan class="cls-9" x="0" y="0">2</tspan><tspan class="cls-18" x="3.39" y="0">26 p/ha</tspan></text>
      <path class="cls-16" d="m5.79,55.61s6.25-27.79,17.92-31.99c7.1-2.56,24.61,23.18,31.96,23.18s15.33-17.74,23.76-14.93,12.07,23.74,12.07,23.74"/>
      <path class="cls-2" d="m5.79,55.61s6.25-27.79,17.92-31.99c7.1-2.56,24.61,23.18,31.96,23.18s15.33-17.74,23.76-14.93,12.07,23.74,12.07,23.74"/>
      <circle class="cls-13" cx="55.67" cy="46.8" r="2.05"/>
      <circle class="cls-13" cx="23.72" cy="23.62" r="2.05"/>
      <circle class="cls-13" cx="79.43" cy="31.98" r="2.05"/>
      <circle class="cls-13" cx="91.07" cy="55.6" r="2.05"/>
      <circle class="cls-13" cx="5.62" cy="55.6" r="2.05"/>
      <g>
        <path class="cls-3" d="m12.4,55.42c-.11-21.46,5.46-31.14,10.12-33.3,6.82-3.17,15.69,9.11,33.56,9.93,12.54.57,14.69-1.34,22.38,1.11,5.73,1.83,14.49,14.02,16.61,22.27"/>
        <circle class="cls-5" cx="56.08" cy="32.1" r="1.16"/>
        <circle class="cls-5" cx="78.46" cy="33.03" r="1.16"/>
        <circle class="cls-5" cx="95" cy="55.42" r="1.16"/>
        <circle class="cls-5" cx="22.52" cy="22.12" r="1.16"/>
        <circle class="cls-5" cx="12.4" cy="55.42" r="1.16"/>
      </g>
      <text class="cls-14" transform="translate(84.27 62.27)"><tspan x="0" y="0">3</tspan><tspan class="cls-8" x="3.53" y="0">8.</tspan><tspan x="8.38" y="0">8%</tspan></text>
      <text class="cls-15" transform="translate(82.28 32.46)"><tspan class="cls-19" x="0" y="0">15</tspan><tspan class="cls-12" x="5.51" y="0">€/m2</tspan></text>
      <text class="cls-14" transform="translate(11.24 19.22)"><tspan x="0" y="0">9</tspan><tspan class="cls-10" x="3.49" y="0">0</tspan><tspan class="cls-11" x="7.15" y="0">.</tspan><tspan x="7.78" y="0">1%</tspan></text>
      <text class="cls-14" transform="translate(.52 62.27)"><tspan x="0" y="0">100%</tspan></text>
      <text class="cls-14" transform="translate(56.84 43.22)"><tspan x="0" y="0">1</tspan><tspan class="cls-17" x="2.56" y="0">1</tspan><tspan class="cls-11" x="4.75" y="0">.</tspan><tspan x="5.38" y="0">1%</tspan></text>
      <text class="cls-20" transform="translate(0 5.1)"><tspan x="0" y="0">District 8</tspan></text>
    </g>
  </g>
</svg>