<?xml version="1.0" encoding="UTF-8"?>
<svg id="Layer_2" data-name="Layer 2" xmlns="http://www.w3.org/2000/svg" viewBox="0 0 109.82 92.76">
  <defs>
    <style>
      .cls-1 {
        fill: #f8d1d4;
      }

      .cls-1, .cls-2, .cls-3, .cls-4, .cls-5 {
        stroke-miterlimit: 10;
      }

      .cls-1, .cls-2, .cls-6, .cls-4, .cls-5 {
        stroke-width: .3px;
      }

      .cls-1, .cls-3, .cls-6, .cls-7, .cls-4, .cls-5 {
        stroke: #010101;
      }

      .cls-8 {
        letter-spacing: -.01em;
      }

      .cls-9 {
        letter-spacing: -.02em;
      }

      .cls-10 {
        font-size: 3.6px;
      }

      .cls-11, .cls-12, .cls-13, .cls-14, .cls-4 {
        fill: #9b1c1f;
      }

      .cls-15 {
        letter-spacing: -.06em;
      }

      .cls-16 {
        letter-spacing: -.14em;
      }

      .cls-2 {
        stroke: #bd2026;
      }

      .cls-2, .cls-3, .cls-6, .cls-7 {
        fill: none;
      }

      .cls-17 {
        letter-spacing: 0em;
      }

      .cls-17, .cls-18, .cls-19 {
        font-size: 5.4px;
      }

      .cls-3 {
        stroke-dasharray: 0 0 .91 .91;
        stroke-width: .5px;
      }

      .cls-20 {
        letter-spacing: 0em;
      }

      .cls-18 {
        letter-spacing: 0em;
      }

      .cls-21 {
        fill: #010101;
      }

      .cls-21, .cls-12 {
        font-size: 6px;
      }

      .cls-21, .cls-12, .cls-13 {
        font-family: L10-Regular, L10;
      }

      .cls-22 {
        letter-spacing: -.05em;
      }

      .cls-7 {
        stroke-width: .08px;
      }

      .cls-23 {
        letter-spacing: -.02em;
      }

      .cls-14 {
        opacity: .6;
      }

      .cls-5 {
        fill: #fff;
      }
    </style>
  </defs>
  <g id="radar-graphs">
    <g>
      <circle class="cls-11" cx="4.96" cy="54.58" r="2.05"/>
      <path class="cls-1" d="m93.58,54.33c0,21.14-17.14,38.28-38.28,38.28s-38.28-17.14-38.28-38.28"/>
      <path class="cls-4" d="m64.35,54.33c0,4.99-4.05,9.04-9.04,9.04h0c-4.99,0-9.04-4.05-9.04-9.04"/>
      <g>
        <path id="_10000" data-name="10000" class="cls-7" d="m9.72,54.33c0-25.19,20.42-45.61,45.61-45.61s45.61,20.42,45.61,45.61H9.72Z"/>
        <path id="_9000" data-name="9000" class="cls-7" d="m14.45,54.33c0-22.58,18.31-40.89,40.89-40.89s40.89,18.31,40.89,40.89"/>
        <path id="_8000" data-name="8000" class="cls-7" d="m18.9,54.33c0-20.12,16.31-36.44,36.44-36.44s36.44,16.31,36.44,36.44"/>
        <path id="_7000" data-name="7000" class="cls-7" d="m23.35,54.33c0-17.67,14.32-31.99,31.99-31.99s31.99,14.32,31.99,31.99"/>
        <path id="_6000" data-name="6000" class="cls-7" d="m28.08,54.33c0-15.05,12.2-27.26,27.26-27.26s27.26,12.2,27.26,27.26"/>
        <path id="_5000" data-name="5000" class="cls-7" d="m32.53,54.33c0-12.6,10.21-22.81,22.81-22.81s22.81,10.21,22.81,22.81"/>
        <path id="_4000" data-name="4000" class="cls-7" d="m37.26,54.33c0-9.98,8.09-18.08,18.08-18.08s18.08,8.09,18.08,18.08h-36.16Z"/>
        <path id="_3000" data-name="3000" class="cls-7" d="m41.71,54.33c0-7.53,6.1-13.63,13.63-13.63s13.63,6.1,13.63,13.63h-27.26Z"/>
        <path id="_2000" data-name="2000" class="cls-7" d="m46.16,54.33c0-5.07,4.11-9.18,9.18-9.18s9.18,4.11,9.18,9.18h-18.36Z"/>
        <path id="_1000" data-name="1000" class="cls-7" d="m50.89,54.33c0-2.46,1.99-4.45,4.45-4.45s4.45,1.99,4.45,4.45"/>
        <path id="_10000-2" data-name="10000" class="cls-7" d="m5.25,54.33C5.25,26.62,27.71,4.16,55.42,4.16s50.16,22.46,50.16,50.16H5.25Z"/>
        <g>
          <line class="cls-6" x1="55.34" y1="54.33" x2="55.34" y2="4.26"/>
          <line class="cls-6" x1="55.34" y1="54.33" x2="19.93" y2="18.93"/>
          <line class="cls-6" x1="55.34" y1="54.33" x2="90.74" y2="18.93"/>
          <line class="cls-6" x1="5.25" y1="54.33" x2="105.47" y2="54.33"/>
        </g>
      </g>
      <text class="cls-12" transform="translate(46.26 69.13)"><tspan x="0" y="0">29</tspan><tspan class="cls-23" x="7" y="0">6</tspan><tspan class="cls-22" x="10.37" y="0">.</tspan><tspan x="11.48" y="0">7 ha</tspan></text>
      <text class="cls-12" transform="translate(46.13 83.93)"><tspan class="cls-8" x="0" y="0">1</tspan><tspan x="2.5" y="0">42 p/ha</tspan></text>
      <path class="cls-14" d="m4.96,54.34s7.06-26.72,18.15-32.29c8.27-4.16,24.89,18.65,32.23,18.65,7.2,0,15.77-13.38,24.2-10.57,8.01,2.67,14.05,24.2,14.05,24.2"/>
      <path class="cls-2" d="m4.96,54.34s7.06-26.72,18.15-32.29c8.27-4.16,24.89,18.65,32.23,18.65,7.2,0,15.77-13.38,24.2-10.57,8.01,2.67,14.05,24.2,14.05,24.2"/>
      <circle class="cls-11" cx="55.17" cy="40.65" r="2.05"/>
      <circle class="cls-11" cx="22.89" cy="22.05" r="2.05"/>
      <circle class="cls-11" cx="79.53" cy="30.32" r="2.05"/>
      <circle class="cls-11" cx="93.66" cy="54.58" r="2.05"/>
      <g>
        <path class="cls-3" d="m11.5,54.14c-.11-21.46,5.46-31.14,10.12-33.3,6.82-3.17,15.69,9.11,33.56,9.93,12.54.57,14.69-1.34,22.38,1.11,5.73,1.83,14.49,14.02,16.61,22.27"/>
        <circle class="cls-5" cx="55.18" cy="30.83" r="1.16"/>
        <circle class="cls-5" cx="77.56" cy="31.76" r="1.16"/>
        <circle class="cls-5" cx="94.1" cy="54.14" r="1.16"/>
        <circle class="cls-5" cx="21.62" cy="20.84" r="1.16"/>
        <circle class="cls-5" cx="11.5" cy="54.14" r="1.16"/>
      </g>
      <text class="cls-12" transform="translate(94.17 61.78)"><tspan x="0" y="0">4</tspan><tspan class="cls-15" x="3.42" y="0">1</tspan><tspan class="cls-22" x="5.62" y="0">.</tspan><tspan class="cls-20" x="6.72" y="0">7%</tspan></text>
      <text class="cls-13" transform="translate(82.58 31.18)"><tspan class="cls-19" x="0" y="0">1</tspan><tspan class="cls-18" x="2.3" y="0">5</tspan><tspan class="cls-17" x="5.45" y="0">.3</tspan><tspan class="cls-10" x="9.89" y="0">€/m2</tspan></text>
      <text class="cls-12" transform="translate(9.72 17.46)"><tspan x="0" y="0">92.3%</tspan></text>
      <text class="cls-12" transform="translate(4.95 61.78)"><tspan x="0" y="0">100%</tspan></text>
      <text class="cls-12" transform="translate(56.79 38.33)"><tspan x="0" y="0">1</tspan><tspan class="cls-16" x="2.56" y="0">9</tspan><tspan class="cls-9" x="5.21" y="0">.</tspan><tspan class="cls-20" x="6.49" y="0">4%</tspan></text>
      <text class="cls-21" transform="translate(0 5.1)"><tspan x="0" y="0">District 9</tspan></text>
    </g>
  </g>
</svg>