<?xml version="1.0" encoding="utf-8"?>
<!-- Generator: Adobe Illustrator 27.6.1, SVG Export Plug-In . SVG Version: 6.00 Build 0)  -->
<svg version="1.1" id="Layer_2_00000183219298111440560030000009884254281281661097_"
	 xmlns="http://www.w3.org/2000/svg" xmlns:xlink="http://www.w3.org/1999/xlink" x="0px" y="0px" viewBox="0 0 257.9 113"
	 style="enable-background:new 0 0 257.9 113;" xml:space="preserve">
<style type="text/css">
	.st0{fill:none;stroke:#010101;stroke-width:0.1;}
	.st1{fill:none;stroke:#010101;stroke-width:0.4;}
	.st2{fill:#F8D1D4;stroke:#010101;stroke-width:0.4;stroke-miterlimit:10;}
	.st3{fill:#9B1C1F;stroke:#010101;stroke-width:0.4;stroke-miterlimit:10;}
	.st4{font-family:'L10-Regular';}
	.st5{font-size:6px;}
	.st6{fill:#010101;}
	.st7{font-family:'L10-RegularItalic';}
	.st8{opacity:0.6;fill:#9B1C1F;enable-background:new    ;}
	.st9{fill:none;stroke:#BD2026;stroke-width:0.4;stroke-miterlimit:10;}
	.st10{fill:#9B1C1F;}
	.st11{fill:none;stroke:#010101;stroke-width:0.5;stroke-miterlimit:10;stroke-dasharray:0,0,1.2,1.2;}
	.st12{fill:#FFFFFF;stroke:#010101;stroke-width:0.5;stroke-miterlimit:10;}
	.st13{fill:none;stroke:#010101;stroke-width:0.5;stroke-miterlimit:10;}
</style>
<g id="radar-graphs">
	<g>
		<g>
			<path id="_10000" class="st0" d="M79.9,80.6c0-33.1,26.9-60,60-60s60,26.9,60,60H79.9L79.9,80.6z"/>
			<path id="_9000" class="st0" d="M86.2,80.6c0-29.7,24.1-53.8,53.8-53.8s53.8,24.1,53.8,53.8"/>
			<path id="_8000" class="st0" d="M92,80.6c0-26.5,21.5-47.9,47.9-47.9s47.9,21.5,47.9,47.9"/>
			<path id="_7000" class="st0" d="M97.9,80.6c0-23.2,18.8-42.1,42.1-42.1S182,57.4,182,80.6"/>
			<path id="_6000" class="st0" d="M104.1,80.6c0-19.8,16.1-35.9,35.9-35.9s35.9,16,35.9,35.9"/>
			<path id="_5000" class="st0" d="M109.9,80.6c0-16.6,13.4-30,30-30s30,13.4,30,30"/>
			<path id="_4000" class="st0" d="M116.2,80.6c0-13.1,10.7-23.8,23.8-23.8s23.8,10.7,23.8,23.8H116.2L116.2,80.6z"/>
			<path id="_3000" class="st0" d="M122,80.6c0-9.9,8-17.9,17.9-17.9s17.9,8,17.9,17.9C157.9,80.6,122,80.6,122,80.6z"/>
			<path id="_2000" class="st0" d="M127.9,80.6c0-6.7,5.4-12.1,12.1-12.1S152,73.9,152,80.6H127.9L127.9,80.6z"/>
			<path id="_1000" class="st0" d="M134.1,80.6c0-3.2,2.6-5.8,5.9-5.8s5.9,2.6,5.9,5.8"/>
			<line class="st1" x1="139.9" y1="80.6" x2="139.9" y2="14.7"/>
			<line class="st1" x1="139.9" y1="80.6" x2="93.4" y2="34"/>
			<line class="st1" x1="139.9" y1="80.6" x2="186.5" y2="34"/>
			<path id="_10000-2" class="st0" d="M74.1,80.6c0-36.5,29.6-66,66-66s66,29.5,66,66H74.1z"/>
			<line class="st1" x1="74.1" y1="80.6" x2="205.9" y2="80.6"/>
		</g>
		<path class="st2" d="M172.2,80.6c0,17.8-14.4,32.2-32.2,32.2h0c-17.8,0-32.2-14.4-32.2-32.2"/>
		<path class="st3" d="M151.7,80.6c0,6.5-5.2,11.7-11.7,11.7l0,0c-6.5,0-11.7-5.2-11.7-11.7"/>
		<text transform="matrix(1 0 0 1 144.8148 88.6402)" class="st4 st5">District A</text>
		<text transform="matrix(1 0 0 1 168.8947 88.6402)" class="st4 st5">r</text>
		<text transform="matrix(1 0 0 1 170.9247 88.6402)" class="st4 st5">ea</text>
		<text transform="matrix(1 0 0 1 102.8703 12.302)" class="st6 st4 st5">P</text>
		<text transform="matrix(1 0 0 1 106.1003 12.302)" class="st6 st4 st5">e</text>
		<text transform="matrix(1 0 0 1 109.4603 12.302)" class="st6 st4 st5">r</text>
		<text transform="matrix(1 0 0 1 111.4903 12.302)" class="st6 st4 st5">c</text>
		<text transform="matrix(1 0 0 1 114.6703 12.302)" class="st6 st4 st5">entage </text>
		<text transform="matrix(1 0 0 1 134.9503 12.302)" class="st6 st4 st5">o</text>
		<text transform="matrix(1 0 0 1 138.3103 12.302)" class="st6 st4 st5">f Social Housing</text>
		<text transform="matrix(1 0 0 1 189.5399 32.66)" class="st6 st4 st5">A</text>
		<text transform="matrix(1 0 0 1 192.6299 32.66)" class="st6 st4 st5">v</text>
		<text transform="matrix(1 0 0 1 195.6399 32.66)" class="st6 st4 st5">erage </text>
		<text transform="matrix(1 0 0 1 212.4999 32.66)" class="st6 st4 st5">r</text>
		<text transform="matrix(1 0 0 1 214.5199 32.66)" class="st6 st4 st5">ent</text>
		<text transform="matrix(1 0 0 1 217.6096 54.9419)" class="st6 st7 st5">max. of Vienna</text>
		<text transform="matrix(1 0 0 1 23.795 26.7998)" class="st6 st4 st5">G</text>
		<text transform="matrix(1 0 0 1 28.2451 26.7998)" class="st6 st4 st5">r</text>
		<text transform="matrix(1 0 0 1 30.2751 26.7998)" class="st6 st4 st5">een Spa</text>
		<text transform="matrix(1 0 0 1 52.045 26.7998)" class="st6 st4 st5">c</text>
		<text transform="matrix(1 0 0 1 55.225 26.7998)" class="st6 st4 st5">es C</text>
		<text transform="matrix(1 0 0 1 66.795 26.7998)" class="st6 st4 st5">ov</text>
		<text transform="matrix(1 0 0 1 73.2451 26.7998)" class="st6 st4 st5">erage</text>
		<text transform="matrix(1 0 0 1 17.635 47.4166)" class="st6 st4 st5">A</text>
		<text transform="matrix(1 0 0 1 20.725 47.4166)" class="st6 st4 st5">v</text>
		<text transform="matrix(1 0 0 1 23.735 47.4166)" class="st6 st4 st5">erage </text>
		<text transform="matrix(1 0 0 1 40.595 47.4166)" class="st6 st4 st5">o</text>
		<text transform="matrix(1 0 0 1 43.945 47.4166)" class="st6 st4 st5">f Vienna</text>
		<text transform="matrix(1 0 0 1 0 80.5903)" class="st6 st4 st5">Public transport </text>
		<text transform="matrix(1 0 0 1 44.5 80.5903)" class="st6 st4 st5">c</text>
		<text transform="matrix(1 0 0 1 47.67 80.5903)" class="st6 st4 st5">ov</text>
		<text transform="matrix(1 0 0 1 54.13 80.5903)" class="st6 st4 st5">erage</text>
		<text transform="matrix(1 0 0 1 62.87 32.72)" class="st6 st4 st5">0 </text>
		<text transform="matrix(1 0 0 1 68.23 32.72)" class="st6 st4 st5">t</text>
		<text transform="matrix(1 0 0 1 70.18 32.72)" class="st6 st4 st5">o 100%</text>
		<text transform="matrix(1 0 0 1 128.92 20.58)" class="st6 st4 st5">0 </text>
		<text transform="matrix(1 0 0 1 134.28 20.58)" class="st6 st4 st5">t</text>
		<text transform="matrix(1 0 0 1 136.23 20.58)" class="st6 st4 st5">o 70%</text>
		<text transform="matrix(1 0 0 1 189.61 40.64)" class="st6 st4 st5">0 </text>
		<text transform="matrix(1 0 0 1 194.97 40.64)" class="st6 st4 st5">t</text>
		<text transform="matrix(1 0 0 1 196.92 40.64)" class="st6 st4 st5">o 21€/m2</text>
		<text transform="matrix(1 0 0 1 197.8196 82.1203)" class="st6 st4 st5">Migration pe</text>
		<text transform="matrix(1 0 0 1 232.1896 82.1203)" class="st6 st4 st5">r</text>
		<text transform="matrix(1 0 0 1 234.2196 82.1203)" class="st6 st4 st5">c</text>
		<text transform="matrix(1 0 0 1 237.3996 82.1203)" class="st6 st4 st5">entage</text>
		<text transform="matrix(1 0 0 1 196.67 89.56)" class="st6 st4 st5">0 </text>
		<text transform="matrix(1 0 0 1 202.03 89.56)" class="st6 st4 st5">t</text>
		<text transform="matrix(1 0 0 1 203.98 89.56)" class="st6 st4 st5">o 52%</text>
		<text transform="matrix(1 0 0 1 41.21 87.05)" class="st6 st4 st5">0 </text>
		<text transform="matrix(1 0 0 1 46.57 87.05)" class="st6 st4 st5">t</text>
		<text transform="matrix(1 0 0 1 48.52 87.05)" class="st6 st4 st5">o 100%</text>
		<text transform="matrix(1 0 0 1 120.5901 101.8882)" class="st4 st5">District Density</text>
		<path class="st8" d="M74.1,80.6c0,0,3.7-36.7,22.7-42.6c16.9-5.3,33.6,27.6,43.2,27.2c8.4-0.4,30.9-32.5,42.5-26.6
			c9.8,5,1.2,42.1,1.2,42.1"/>
		<path class="st9" d="M74.1,80.6c0,0,3.7-36.7,22.7-42.6c16.9-5.3,33.6,27.6,43.2,27.2c8.4-0.4,30.9-32.5,42.5-26.6
			c9.8,5,1.2,42.1,1.2,42.1"/>
		<circle class="st10" cx="139.9" cy="64.8" r="2.7"/>
		<circle class="st10" cx="97" cy="37.9" r="2.7"/>
		<circle class="st10" cx="182.5" cy="38.6" r="2.7"/>
		<circle class="st10" cx="74.5" cy="80.6" r="2.7"/>
		<circle class="st10" cx="183.6" cy="80.6" r="2.7"/>
		<g>
			<path class="st11" d="M82.5,80.6c-0.1-28.2,7.2-41,13.3-43.8c9-4.2,20.6,12,44.2,13.1c16.5,0.8,19.3-1.8,29.4,1.5
				c7.5,2.4,19.1,18.4,21.9,29.3"/>
			<circle class="st12" cx="139.9" cy="49.9" r="1.5"/>
			<circle class="st12" cx="169.4" cy="51.1" r="1.5"/>
			<circle class="st12" cx="191.1" cy="80.6" r="1.5"/>
			<circle class="st12" cx="95.8" cy="36.8" r="1.5"/>
			<circle class="st12" cx="82.5" cy="80.6" r="1.5"/>
		</g>
		<g>
			<path class="st13" d="M204.8,42c0,6.2,4.9,11.2,11.1,11.3"/>
			
				<rect x="214.3" y="53.1" transform="matrix(5.024427e-02 -0.9987 0.9987 5.024427e-02 151.8244 266.2669)" class="st6" width="3.2" height="0.5"/>
		</g>
		<g>
			<path class="st13" d="M83.8,61.6c0-8.7-7-15.7-15.6-15.9"/>
			
				<rect x="66.6" y="45.5" transform="matrix(5.024427e-02 -0.9987 0.9987 5.024427e-02 19.0485 111.5935)" class="st6" width="3.2" height="0.5"/>
		</g>
	</g>
</g>
</svg>
